<?xml version="1.0" standalone="no"?>
<!DOCTYPE svg PUBLIC "-//W3C//DTD SVG 1.1//EN" "http://www.w3.org/Graphics/SVG/1.1/DTD/svg11.dtd" >
<svg xmlns="http://www.w3.org/2000/svg" xmlns:xlink="http://www.w3.org/1999/xlink" version="1.1">
<metadata>
Created by FontForge 20190801 at Thu Feb  7 14:20:59 2002
 By www-data
Copyright (c) 1985, 1987, 1990, 1992, 1993, 2001 Adobe Systems Incorporated.  All Rights Reserved.
</metadata>
<defs>
<font id="BenguiatStdBold" horiz-adv-x="660" >
  <font-face 
    font-family="BenguiatStdBold"
    font-weight="700"
    font-stretch="normal"
    units-per-em="1000"
    panose-1="2 3 9 4 5 3 6 2 7 4"
    ascent="684"
    descent="-316"
    x-height="493"
    cap-height="658"
    bbox="-127 -250 1393 907"
    underline-thickness="50"
    underline-position="-100"
    unicode-range="U+0020-FB02"
  />
<missing-glyph horiz-adv-x="500" 
d="M0 0v700h500v-700h-500zM250 395l170 255h-340zM280 350l170 -255v510zM80 50h340l-170 255zM50 605v-510l170 255z" />
    <glyph glyph-name="fi" unicode="fi" horiz-adv-x="700" 
d="M320 0h-308v25q56 3 56 81v326h-56v25q32 4 43.5 22.5t14.5 53.5q6 52 24 82t63 54q62 32 184 32q103 0 156 -12q48 -12 75 -33t27 -64q0 -30 -19.5 -46t-49.5 -16q-26 0 -43.5 11.5t-29 28t-23.5 32.5t-34 27.5t-54 11.5q-58 0 -79 -31q-12 -20 -12 -86v-31h368v-387
q0 -78 56 -81v-25h-295v25q52 3 52 81v224q0 67 -9 82q-4 6 -11 10t-12.5 6t-15.5 3t-14.5 1h-16.5h-14h-88v-323q0 -45 14 -64t51 -20v-25z" />
    <glyph glyph-name="fl" unicode="fl" horiz-adv-x="700" 
d="M321 0h-309v25q56 3 56 81v326h-56v25q34 8 43.5 21t13.5 52q5 46 20.5 75.5t52.5 54.5q61 41 170 41q12 0 50.5 -3t114.5 -10t146 -12v-570q1 -78 57 -81v-25h-298v25q57 3 54 81v428q0 58 -14.5 82.5t-68.5 24.5q-61 0 -83 -28q-15 -21 -15 -51v-69h33h16h17.5t14.5 1
t16.5 2.5t14 4.5t15.5 8l-30 -96q-3 7 -8.5 11t-14 6t-12.5 2.5t-15.5 0t-13.5 -0.5h-33v-297q-3 -61 12.5 -85t53.5 -25v-25z" />
    <glyph glyph-name=".notdef" horiz-adv-x="500" 
d="M0 0v700h500v-700h-500zM250 395l170 255h-340zM280 350l170 -255v510zM80 50h340l-170 255zM50 605v-510l170 255z" />
    <glyph glyph-name=".null" horiz-adv-x="0" 
 />
    <glyph glyph-name="nonmarkingreturn" horiz-adv-x="333" 
 />
    <glyph glyph-name="space" unicode=" " horiz-adv-x="340" 
 />
    <glyph glyph-name="exclam" unicode="!" horiz-adv-x="380" 
d="M187 -23q-46 0 -78.5 29t-32.5 75q0 47 33 73t81 26q47 0 79.5 -26.5t32.5 -72.5t-33.5 -75t-81.5 -29zM74 658h262q-67 -119 -67 -322q0 -81 11 -135q-39 14 -76 14q-74 0 -106 -14q16 126 16 212q0 132 -40 245z" />
    <glyph glyph-name="quotedbl" unicode="&#x22;" horiz-adv-x="320" 
d="M243 383l-45 193q-1 6 -1 22q0 29 18.5 44.5t44.5 15.5q40 0 54 -30q5 -10 5 -23q0 -11 -1 -14l-47 -208h-28zM61 383l-45 193q-1 6 -1 22q0 29 18.5 44.5t44.5 15.5q40 0 54 -30q5 -10 5 -23q0 -11 -1 -14l-47 -208h-28z" />
    <glyph glyph-name="numbersign" unicode="#" horiz-adv-x="680" 
d="M92 0l48 178h-102l22 84h101l44 159h-102l23 84h101l42 153h109l-41 -153h106l40 153h107l-41 -153h94l-24 -84h-93l-43 -159h94l-23 -84h-94l-48 -178h-105l49 178h-107l-49 -178h-108zM271 262h107l43 159h-107z" />
    <glyph glyph-name="dollar" unicode="$" horiz-adv-x="680" 
d="M516 608l12 -174l-20 -2q-21 54 -65 81.5t-102 27.5q-27 0 -53 -10t-26 -32q0 -7 2 -13t7 -10.5t9 -8t12.5 -6.5t12.5 -4.5t13.5 -4t11.5 -3.5l67 -20q31 -9 40.5 -12t36.5 -13t37 -17t28 -20.5t25 -28t13.5 -35.5t6.5 -46q0 -83 -62 -144.5t-146 -63.5v-62v-11v-12.5
t0.5 -11.5t2 -12t4.5 -10t7 -9.5t10 -6.5v-16h-153v16q7 1 12 4t8 8.5t5 10.5t2.5 13.5t0.5 12.5v13v11v62q-12 1 -63.5 10.5t-70.5 9.5q-29 0 -46 -20l-13 228h22q12 -73 66 -116t129 -43q47 0 74 16q32 18 32 48q0 7 -1.5 13t-5.5 11t-7.5 9t-10 7.5t-10.5 6t-12.5 6
t-12 4.5t-12.5 4t-11 4l-80 27q-70 23 -97 46q-50 42 -50 110q0 74 56 128q44 42 124 50v14q0 3 0.5 14t0 17t-1.5 16.5t-4 16.5t-9 11.5t-14 6.5v16h158v-16q-7 -1 -12.5 -4t-8.5 -9t-5 -11t-2.5 -13.5t-0.5 -13v-13.5v-11v-21l60 -8q33 -5 36 -5q24 0 44 13z" />
    <glyph glyph-name="percent" unicode="%" horiz-adv-x="980" 
d="M219 674q86 0 136.5 -59.5t50.5 -146.5q0 -89 -51.5 -148.5t-139.5 -59.5q-85 0 -136.5 57t-51.5 143q0 93 50.5 153.5t141.5 60.5zM216 623q-33 0 -51 -46q-17 -40 -17 -112q0 -66 15 -105q7 -19 21.5 -34t31.5 -15q22 0 37 17t21.5 44.5t8.5 49t2 43.5q0 21 -2.5 43
t-8.5 50.5t-21 46.5t-37 18zM766 402q86 0 137 -59.5t51 -146.5q0 -89 -52 -149t-139 -60q-86 0 -137 57.5t-51 143.5q0 93 50.5 153.5t140.5 60.5zM764 351q-32 0 -52 -46q-16 -40 -16 -113q0 -66 14 -104q7 -19 21.5 -34.5t31.5 -15.5q22 0 37 17.5t21.5 45t9 49.5t2.5 43
t-2.5 43.5t-9 50.5t-21.5 46t-36 18zM693 658v-16q-9 -2 -16 -5.5t-13 -10t-10.5 -11t-9 -14.5t-7 -14.5t-7 -16.5t-5.5 -15l-188 -456q-24 -54 -24 -62q0 -16 19 -21v-16h-151v16q6 1 11.5 3t10.5 6t8.5 7t8 10t6.5 10t6 11.5t5 11t4.5 12t4.5 10.5l204 490q1 2 4.5 10
t6 15.5t2.5 10.5q0 19 -17 19v16h147z" />
    <glyph glyph-name="ampersand" unicode="&#x26;" horiz-adv-x="880" 
d="M678 490l-16 14q44 75 106 75q44 0 73 -33.5t29 -78.5q0 -58 -39 -99.5t-97 -41.5q-42 0 -89 30q11 -70 0 -107q27 -25 65 -80.5t66 -107.5q11 -21 20 -27.5t31 -8.5v-25h-262q0 31 -27 83q-44 -48 -109 -73.5t-134 -25.5q-104 0 -183 60t-79 160q0 63 39.5 113.5
t101.5 79.5q-53 42 -53 111q0 77 78 125q58 37 151 37q74 0 123 -21q36 -16 58.5 -45t22.5 -67q0 -28 -14 -48q62 -46 136 -46q34 0 52 12q24 17 24 36q0 12 -8.5 21.5t-20.5 9.5q-18 0 -45 -32zM202 286q0 -75 50 -134.5t124 -59.5q69 0 121 44q-85 98 -273 221l-6 4
q-16 -33 -16 -75zM320 551q0 -28 22.5 -54t51.5 -42q48 31 48 82q0 27 -18 48t-46 21q-22 0 -40 -16.5t-18 -38.5zM439 426l144 -114v25q0 88 -53 135q-23 -32 -91 -46z" />
    <glyph glyph-name="quotesingle" unicode="'" horiz-adv-x="200" 
d="M85 383l-45 193q-1 6 -1 22q0 29 18.5 44.5t44.5 15.5q40 0 54 -30q5 -10 5 -23q0 -11 -1 -14l-47 -208h-28z" />
    <glyph glyph-name="parenleft" unicode="(" horiz-adv-x="440" 
d="M365 -123l-72 -67q-100 75 -156 199t-56 255q0 129 55.5 247.5t156.5 189.5l72 -67q-48 2 -90 -111q-44 -116 -44 -267q0 -141 43 -263q8 -23 13.5 -34.5t18 -36.5t28 -36t31.5 -9z" />
    <glyph glyph-name="parenright" unicode=")" horiz-adv-x="440" 
d="M75 634l73 67q101 -71 156.5 -190t55.5 -247q0 -130 -56 -254.5t-156 -199.5l-73 67q16 -2 31.5 9.5t28 36t18 36.5t13.5 34q44 124 44 263q0 147 -45 267q-42 113 -90 111z" />
    <glyph glyph-name="asterisk" unicode="*" horiz-adv-x="420" 
d="M153 495l16 20l-5 2q-28 9 -60 9q-16 0 -38 -5l33 93q24 -30 78 -48l6 -2v5q0 53 -26 89h100q-23 -29 -23 -87v-7l4 2q61 20 78 52l33 -91l-27 2q-21 0 -65 -12l-5 -2l12 -15q18 -20 30 -29.5t34 -17.5l-80 -58q-4 41 -36 85l-3 5l-3 -3q-29 -42 -36 -86l-79 57
q23 8 34.5 15.5t27.5 26.5z" />
    <glyph glyph-name="plus" unicode="+" horiz-adv-x="600" 
d="M342 289v-152q0 -19 13 -30v-14h-113v14q17 10 17 30v152h-152q-19 0 -30 -17h-13v112h13q13 -13 31 -13h151v152q0 19 -17 30v14h113v-14q-13 -8 -13 -30v-152h151q18 0 31 13h13v-112h-13q-11 17 -31 17h-151z" />
    <glyph glyph-name="comma" unicode="," horiz-adv-x="340" 
d="M275 138l-120 -204h-155q28 17 52 74l25 57q18 42 18 53q0 6 -4 20h184z" />
    <glyph glyph-name="hyphen" unicode="-" horiz-adv-x="340" 
d="M305 327l-71 -167q-10 27 -53 27h-66q-50 0 -71 -27l-15 8l71 166q2 -6 6.5 -10.5t7.5 -7t11 -3.5t10.5 -1h13h11.5h62q54 0 68 22z" />
    <glyph glyph-name="period" unicode="." horiz-adv-x="340" 
d="M168 -13q-46 0 -78.5 29t-32.5 74q0 47 33 73.5t81 26.5q47 0 79.5 -27t32.5 -73t-34 -74.5t-81 -28.5z" />
    <glyph glyph-name="slash" unicode="/" horiz-adv-x="440" 
d="M452 700v-16q-7 0 -14 -5t-11.5 -10t-9.5 -15t-7 -15t-6 -16.5t-5 -13.5l-225 -625q-13 -39 -13 -43q0 -20 20 -23v-16h-183v16q23 8 31 20q16 22 38 86l201 572q21 59 21 68q0 17 -17 20v16h180z" />
    <glyph glyph-name="zero" unicode="0" horiz-adv-x="680" 
d="M642 330q0 -144 -82 -245t-223 -101q-138 0 -218.5 97t-80.5 238q0 95 32 174t102 130t167 51q142 0 222.5 -99t80.5 -245zM339 591q-33 0 -56 -32t-35 -73q-17 -57 -17 -157q0 -92 16 -154q11 -40 35 -74t57 -34q66 0 96 115q14 57 14 143q0 103 -19 166
q-32 100 -91 100z" />
    <glyph glyph-name="one" unicode="1" horiz-adv-x="680" 
d="M174 595l277 71v-523q0 -23 0.5 -35t4.5 -30t11 -27t22 -17t36 -9v-25h-335v25q21 1 36 9t22 17.5t11 27.5t4.5 30t0.5 35v328v28t-3 25.5t-8.5 25.5t-16.5 15t-28 7q-15 0 -29 -3z" />
    <glyph glyph-name="two" unicode="2" horiz-adv-x="680" 
d="M643 187l-85 -204q-7 12 -26 16q-6 1 -32 1h-459q58 40 115 90t115 113.5t94 134.5t36 134q0 48 -31.5 81.5t-78.5 33.5q-69 0 -116.5 -44t-43.5 -113l-21 -5l-42 171q151 78 287 78q60 0 116 -20t97.5 -65t41.5 -107q0 -42 -17.5 -83t-50.5 -78.5t-61.5 -63.5t-68.5 -57
l-73 -57h154q63 0 83 7q28 11 48 45z" />
    <glyph glyph-name="three" unicode="3" horiz-adv-x="680" 
d="M592 588l-186 -146q90 2 155.5 -55t65.5 -147q0 -117 -101 -194q-84 -62 -220 -62q-148 0 -258 76l76 163l22 -10q-8 -17 -8 -40q0 -53 44 -83.5t99 -30.5q61 0 109.5 38.5t48.5 97.5q-4 61 -46 94.5t-100.5 36t-123.5 -8.5v6l244 204h-178q-53 0 -77 -7.5t-38 -38.5
l-19 8l67 189h1q7 -11 22 -16q12 -4 27 -4h342z" />
    <glyph glyph-name="four" unicode="4" horiz-adv-x="680" 
d="M512 637v-393h19q29 0 41 1t30.5 9t29.5 26l17 -1l-37 -141l-14 2q1 7 -0.5 12t-6 8t-8.5 5t-11.5 2.5t-11.5 0.5h-12h-10h-26v-64q4 -77 58 -80v-24h-309v24q29 2 46 22t18 58v64h-225h-12h-14t-12 -1t-13 -2.5t-10 -4.5t-11 -8l-1 15q0 49 40 113l38 62q65 108 81 157
q9 29 9 52q0 34 -26 49q80 52 149 140q26 -44 26 -102q0 -49 -26.5 -108t-52 -95.5t-67.5 -90.5l-80 -100h207v238q73 2 122 44t59 111h6z" />
    <glyph glyph-name="five" unicode="5" horiz-adv-x="680" 
d="M579 675l-47 -180l-18 2q1 8 -4 13.5t-16 7.5t-17.5 2.5t-16.5 0.5h-232q-4 -61 -15 -85q85 19 147 19q110 0 181 -47q43 -28 68 -72t25 -94q0 -118 -109 -194q-89 -61 -219 -61q-144 0 -256 76l86 155l17 -10q-3 -13 -3 -28q0 -56 42.5 -87t101.5 -31q64 0 105 28
q24 16 39.5 42t15.5 54q0 57 -52.5 85.5t-115.5 28.5q-89 0 -191 -50q67 169 67 336q0 46 -9 89q13 -12 35 -15q12 -1 37 -1h267q65 0 87 16z" />
    <glyph glyph-name="six" unicode="6" horiz-adv-x="680" 
d="M596 649l-38 -178l-20 2q3 51 -33.5 88.5t-88.5 37.5q-88 0 -149 -80q-49 -60 -47 -163q83 84 200 84q98 0 159 -57t61 -154q0 -116 -85 -180.5t-204 -64.5q-143 0 -227 92.5t-84 235.5q0 163 101.5 262.5t265.5 99.5q78 0 189 -25zM351 357q-25 0 -49.5 -15.5
t-39.5 -38.5q-22 -34 -22 -94q0 -61 26 -105.5t84 -44.5q37 0 61.5 25.5t33 58t8.5 68.5q0 58 -24.5 102t-77.5 44z" />
    <glyph glyph-name="seven" unicode="7" horiz-adv-x="680" 
d="M418 13l1 -13h-246q8 76 53 157q49 90 138 169l36 32q87 78 110 151h-283q-32 0 -47 -1t-34.5 -5t-29.5 -14t-15 -27l-24 6l59 206q10 -13 32 -16q13 -1 36 -1h306q19 0 30 0.5t26.5 4t24.5 12t11 22.5h6l3 -48q0 -102 -67 -229l-48 -91q-40 -76 -60 -135.5t-20 -128.5z
" />
    <glyph glyph-name="eight" unicode="8" horiz-adv-x="680" 
d="M624 511q0 -65 -48 -105t-117 -53q84 -12 140 -53.5t56 -117.5q0 -102 -108 -158q-79 -40 -204 -40q-113 0 -189 34q-120 53 -120 166q0 75 58.5 116.5t141.5 52.5q-72 11 -120.5 46t-48.5 101q0 90 102 139q73 35 188 35q95 0 162 -28q45 -19 76 -55t31 -80zM252 499
q0 -45 24 -78.5t66 -33.5q43 0 68 31.5t27 76.5q0 45 -23 76.5t-67 31.5q-42 0 -68.5 -31t-26.5 -73zM348 321q-56 0 -85 -37.5t-29 -95.5q0 -56 29 -94.5t83 -38.5q49 0 79 39.5t30 90.5q0 55 -27.5 95.5t-79.5 40.5z" />
    <glyph glyph-name="nine" unicode="9" horiz-adv-x="680" 
d="M65 13l42 176l20 -2q-4 -58 35 -93t99 -35q44 0 86 22t70 58q51 66 45 163q-83 -84 -201 -84q-97 0 -157.5 57t-60.5 154q0 115 85 180t203 65q143 0 227.5 -93t84.5 -237q0 -169 -99 -264q-100 -96 -276 -96q-97 0 -203 29zM230 444q0 -55 24.5 -99t74.5 -44q56 0 85 44
t29 103q0 78 -33 114.5t-75 36.5q-47 0 -78 -47q-27 -41 -27 -108z" />
    <glyph glyph-name="colon" unicode=":" horiz-adv-x="340" 
d="M168 -13q-46 0 -78.5 29t-32.5 74q0 47 33 73.5t81 26.5q47 0 79.5 -27t32.5 -73t-34 -74.5t-81 -28.5zM168 281q-46 0 -78.5 29t-32.5 74q0 47 33 73.5t81 26.5q47 0 79.5 -26.5t32.5 -72.5t-34 -75t-81 -29z" />
    <glyph glyph-name="semicolon" unicode=";" horiz-adv-x="340" 
d="M275 138l-120 -204h-155q28 17 52 74l25 57q18 42 18 53q0 6 -4 20h184zM188 281q-47 0 -79 28.5t-32 74.5q0 47 32.5 73.5t81.5 26.5q47 0 79.5 -27t32.5 -73t-34 -74.5t-81 -28.5z" />
    <glyph glyph-name="less" unicode="&#x3c;" horiz-adv-x="600" 
d="M514 614v-82l-207 -126l207 -143v-217l-428 296v10z" />
    <glyph glyph-name="equal" unicode="=" horiz-adv-x="600" 
d="M64 352v112h13q13 -13 31 -13h385q18 0 31 13h13v-112h-13q-11 17 -31 17h-386q-19 0 -30 -17h-13zM64 192v112h13q13 -13 31 -13h385q18 0 31 13h13v-112h-13q-11 17 -31 17h-386q-19 0 -30 -17h-13z" />
    <glyph glyph-name="greater" unicode="&#x3e;" horiz-adv-x="600" 
d="M86 46v81l207 127l-207 143v217l428 -296v-10z" />
    <glyph glyph-name="question" unicode="?" horiz-adv-x="560" 
d="M400 330l-76 -32q-1 0 -10 -4.5t-12.5 -6t-12.5 -6t-13.5 -7.5t-11 -8.5t-10 -10t-6 -10t-2.5 -11.5q0 -12 9 -28h-5q-32 6 -54 6q-45 0 -89 -29q-12 23 -12 47q0 19 7.5 36t23.5 32t27 23.5t32 22.5l35 23q110 73 110 141q0 43 -30.5 67.5t-74.5 24.5q-67 0 -115.5 -47
t-48.5 -114l1 -16h-25l-18 222q15 -18 30 -18q18 0 60 15q117 32 180 32t117 -15.5t94.5 -58.5t40.5 -108q0 -102 -141 -162zM194 -23q-47 0 -79 28.5t-32 74.5q0 48 32.5 74t81.5 26q47 0 79.5 -26.5t32.5 -72.5t-34 -75t-81 -29z" />
    <glyph glyph-name="at" unicode="@" horiz-adv-x="780" 
d="M596 525l-50 -273q-4 -16 -4 -31q0 -29 32 -29q50 0 80 59.5t30 134.5q0 64 -24 113.5t-63.5 77.5t-83.5 42t-90 14q-72 0 -131.5 -29t-96.5 -75.5t-57 -103t-20 -114.5q0 -115 77.5 -196.5t220.5 -81.5q77 0 160 37l12 -51q-106 -39 -193 -39q-18 0 -39.5 1.5t-61.5 9
t-76 20t-76 37.5t-69 58t-48 85t-19 116q0 114 59.5 202.5t152.5 133t200 44.5q64 0 125.5 -18t114 -52.5t85 -93t32.5 -132.5q0 -85 -40 -142.5t-89 -80.5q-37 -18 -63.5 -22.5t-67.5 -4.5l-69 1q-142 0 -166 7q-81 23 -81 117q0 30 10 66t33.5 78t74 70t120.5 28
q7 0 43 -2t42 -2q18 0 28.5 3t45.5 18zM434 273l34 182q-3 0 -6 0.5t-5 1t-4 0.5q-46 0 -86.5 -58t-40.5 -123q0 -86 64 -86q21 0 27.5 13t16.5 70z" />
    <glyph glyph-name="A" unicode="A" horiz-adv-x="780" 
d="M242 252l-36 -102q-19 -57 -19 -81q0 -39 46 -44v-25h-220v25q16 3 29.5 13t21.5 18.5t18 27t13 26t12 29.5l157 415q17 41 17 54q0 22 -22 25v25h292v-25q-23 -3 -23 -25q0 -9 156 -470q1 -2 7.5 -21.5t9 -26t10.5 -22t14.5 -22t17.5 -13.5t24 -8v-25h-345v25
q24 2 39.5 17.5t15.5 40.5q0 34 -25.5 68.5t-58.5 56.5q-70 48 -151 44zM412 288l-76 237l-63 -188q67 1 139 -49z" />
    <glyph glyph-name="B" unicode="B" horiz-adv-x="700" 
d="M69 125v408q0 54 -12.5 77.5t-42.5 22.5v25h443q24 0 33.5 -0.5t33 -2.5t35 -5.5t29.5 -10.5t26.5 -17t15.5 -26t7 -37q0 -91 -168 -157q95 -16 160 -69t65 -141q0 -102 -99 -157q-60 -35 -194 -35h-387v25q30 -1 42.5 22.5t12.5 77.5zM274 531v-129q36 8 70 22.5
t64.5 43.5t30.5 64q0 32 -28 46t-63 14q-48 0 -64 -15q-10 -8 -10 -46zM274 330v-198q0 -41 9.5 -53.5t50.5 -12.5q66 0 107 35.5t41 100.5q0 103 -108 162z" />
    <glyph glyph-name="C" unicode="C" horiz-adv-x="720" 
d="M719 197l-79 -219q-8 11 -18 14q-7 2 -27 2q-28 0 -74 -6q-48 -4 -72 -4q-84 0 -159 22.5t-134.5 66t-94.5 113.5t-35 158q0 155 105 242.5t263 87.5q54 0 144 -15q24 -4 37 -4q34 0 50 27l57 -284l-21 -6q-29 83 -88 140t-139 57q-89 0 -138.5 -66.5t-49.5 -158.5
q0 -115 59 -196q33 -46 84.5 -72.5t107.5 -26.5q67 0 120.5 36.5t78.5 99.5z" />
    <glyph glyph-name="D" unicode="D" horiz-adv-x="780" 
d="M74 125v408q0 54 -12.5 77.5t-42.5 22.5v25h318q90 -1 156 -16.5t123 -60.5q61 -48 95 -120.5t34 -152.5q0 -146 -96 -232q-86 -76 -260 -76h-370v25q30 -1 42.5 22.5t12.5 77.5zM279 502v-326v-34.5t3.5 -28t10.5 -26.5t21.5 -14t35.5 -7q60 0 103.5 38t61.5 90.5
t18 111.5q0 46 -12 94t-34.5 92t-62 72t-88.5 28q-20 0 -32.5 -7t-17.5 -23t-6 -27.5t-1 -32.5z" />
    <glyph glyph-name="E" unicode="E" 
d="M653 244l-85 -260q-11 12 -28 14q-10 2 -32 2h-496v25q30 -1 42.5 22.5t12.5 77.5v408q0 54 -12.5 77.5t-42.5 22.5v25h454q1 0 15.5 -0.5t20 0t17 2t19 5t12.5 9.5l51 -230l-22 -7q-21 72 -80 113.5t-135 41.5q-27 0 -45 -5t-27.5 -10.5t-14 -22t-5 -27.5t-0.5 -39v-13
v-32h32q70 0 90 7q42 16 41 74l20 3l44 -254l-20 -2q-18 46 -49 74q-7 7 -15 12t-14.5 8.5t-16.5 5.5t-15 3.5t-17.5 2t-16 0.5h-18.5h-18h-27v-217q0 -53 19.5 -73.5t77.5 -20.5q173 0 263 186z" />
    <glyph glyph-name="F" unicode="F" horiz-adv-x="580" 
d="M15 658h488q1 0 10.5 -0.5t13 0t10.5 2t11 5t6 9.5l48 -232l-20 -7q-25 73 -80 114.5t-132 42.5q-58 0 -77 -17q-7 -6 -11.5 -13.5t-6 -17t-2 -15t0 -17.5t0.5 -15v-61h57h17.5h19t16.5 1t17 2.5t13.5 4.5t13 8t8.5 12t6.5 16.5t1.5 21.5l-1 18l22 2l33 -269h-21
q-8 51 -38 81q-19 17 -45 25.5t-42.5 9.5t-52.5 1h-25v-216q0 -80 16.5 -105t44.5 -24v-25h-320l-1 25q30 -1 42.5 22.5t12.5 77.5v408q0 54 -12.5 77.5t-42.5 22.5z" />
    <glyph glyph-name="G" unicode="G" horiz-adv-x="800" 
d="M722 257v-116q0 -71 9 -88q8 -16 41 -28v-25h-322q-93 0 -164.5 15t-129.5 59q-64 49 -100.5 125.5t-36.5 157.5q0 154 104 235.5t264 81.5q79 0 156 -15q30 -6 45 -6q35 0 55 28l31 -234l-21 -3q-28 68 -86.5 111.5t-130.5 43.5q-68 0 -114 -38t-64.5 -93t-18.5 -121
q0 -65 20.5 -126.5t69 -108t115.5 -46.5q52 0 70 33q11 19 11 77v92q0 59 -9 77q-13 26 -52 28v25h321v-25q-13 -1 -23 -4.5t-16.5 -7.5t-11.5 -13t-7.5 -14t-3.5 -18.5t-1 -18v-21v-19.5z" />
    <glyph glyph-name="H" unicode="H" horiz-adv-x="760" 
d="M281 413v-283q0 -57 13 -80.5t46 -24.5v-25h-319v25q30 -1 42.5 22.5t12.5 77.5v408q0 54 -12.5 77.5t-42.5 22.5v25h319v-25q-31 1 -45 -23t-14 -77v-54h199v54q0 53 -14 77t-45 23v25h319v-25q-30 1 -42.5 -22.5t-12.5 -77.5v-408q0 -54 12.5 -77.5t42.5 -22.5v-25
h-319v25q33 1 46 24.5t13 80.5v283h-199z" />
    <glyph glyph-name="I" unicode="I" horiz-adv-x="340" 
d="M273 533v-408q0 -54 12.5 -77.5t42.5 -22.5v-25h-315v25q30 -1 42.5 22.5t12.5 77.5v408q0 54 -12.5 77.5t-42.5 22.5v25h315v-25q-30 1 -42.5 -22.5t-12.5 -77.5z" />
    <glyph glyph-name="J" unicode="J" horiz-adv-x="580" 
d="M310 241v292q0 55 -11 78t-41 22v25h310v-25q-30 1 -41.5 -22.5t-11.5 -77.5v-302q0 -46 -2.5 -72.5t-17 -60.5t-43.5 -57q-69 -57 -201 -57q-168 0 -274 96l119 202l18 -11q-18 -41 -18 -77q0 -52 32 -89.5t84 -37.5q26 0 49.5 12t34.5 34q14 31 14 128z" />
    <glyph glyph-name="K" unicode="K" horiz-adv-x="740" 
d="M757 25v-24h-341v24q46 2 46 34q0 26 -18 77t-35 85q-32 64 -96 141l-35 -32v-205q0 -52 15 -76.5t46 -23.5v-25h-321v25q30 -1 42.5 22.5t12.5 77.5v408q0 54 -12.5 77.5t-42.5 22.5v25h314l1 -25q-30 -1 -42.5 -25.5t-12.5 -79.5v-115l107 96q1 1 10.5 10t15 14.5
t14.5 15.5t14 17.5t9 15.5t4 14q0 17 -15 26.5t-32 10.5v25h290v-25q-87 -13 -188 -98l-51 -44q77 -79 127 -171t93 -217q14 -39 30.5 -58.5t50.5 -19.5z" />
    <glyph glyph-name="L" unicode="L" horiz-adv-x="620" 
d="M620 263l-83 -279q-7 13 -30 15q-12 1 -36 1h-453v25q30 -1 42.5 22.5t12.5 77.5v408q0 54 -12.5 77.5t-42.5 22.5v25h314l1 -25q-30 1 -42.5 -22.5t-12.5 -77.5v-406q0 -15 2 -23.5t8.5 -18.5t22 -14.5t40.5 -4.5q82 0 149 60t100 144z" />
    <glyph glyph-name="M" unicode="M" horiz-adv-x="800" 
d="M337 131l-188 394v-395q0 -56 13 -80t47 -25v-25h-198v25q30 -1 41.5 22.5t11.5 77.5v408q0 54 -11.5 77.5t-41.5 22.5v25h337v-25q-23 -6 -23 -24q0 -8 7 -29l10 -25l59 -134l72 142q16 35 16 46q0 18 -17 24v25h317v-25q-30 1 -42.5 -22.5t-12.5 -77.5v-408
q0 -54 12.5 -77.5t42.5 -22.5v-25h-317v25q30 -1 43.5 23t13.5 77v400z" />
    <glyph glyph-name="N" unicode="N" 
d="M598 533v-407q0 -54 12.5 -77.5t42.5 -22.5v-25h-201v24q51 8 51 57q0 22 -9.5 44.5t-19.5 35.5t-30 35l-297 342v-414q0 -54 12 -77.5t42 -22.5v-25h-194v25q30 -1 42.5 22.5t12.5 77.5v408q0 54 -12.5 77.5t-42.5 22.5v25h382v-25q-26 -7 -26 -27q0 -18 40 -64
l110 -135v126q0 52 -15 76.5t-46 23.5v25h201v-25q-30 1 -42.5 -22.5t-12.5 -77.5z" />
    <glyph glyph-name="O" unicode="O" horiz-adv-x="780" 
d="M394 -16q-169 0 -265 88q-105 96 -105 259q0 157 105 250t265 93q165 0 258 -86q53 -48 79 -118t26 -146q0 -70 -25 -136t-74 -111t-120.5 -69t-143.5 -24zM406 69q39 0 68 24.5t43 62.5q20 50 20 132q0 113 -28 187q-19 47 -54 80.5t-80 33.5q-69 0 -108 -85
q-23 -52 -23 -136q0 -110 31 -187q19 -47 53 -79.5t78 -32.5z" />
    <glyph glyph-name="P" unicode="P" 
d="M67 125v408q0 54 -11.5 77.5t-41.5 22.5v25h419q108 0 145 -12q35 -11 56.5 -37t21.5 -63q0 -43 -28 -80t-66 -60.5t-95 -45.5t-95 -32.5t-87 -22.5q-4 -1 -7 -1.5t-6 -1.5v-177q0 -52 15 -76.5t46 -23.5v-25h-319v25q30 -1 41.5 22.5t11.5 77.5zM272 508v-133
q66 15 119 49t53 89q0 40 -29 59.5t-72 19.5q-47 0 -59 -17.5t-12 -66.5z" />
    <glyph glyph-name="Q" unicode="Q" horiz-adv-x="820" 
d="M768 79l20 6q11 -39 11 -77q0 -54 -19 -88q-16 -28 -43.5 -43.5t-59.5 -15.5q-59 0 -97 37t-67 100q-38 -8 -57 -10q-25 -4 -57 -4q-164 0 -270.5 91.5t-106.5 252.5q0 159 106.5 252.5t268.5 93.5q161 0 257 -95q50 -49 78 -116t28 -137q0 -173 -136 -274
q12 -20 38 -33.5t50 -13.5q25 0 41.5 15t16.5 40q0 13 -2 19zM540 284q0 46 -7 92.5t-24 97.5t-52 83t-84 32q-34 0 -62.5 -25.5t-43.5 -60.5q-25 -57 -25 -142q0 -103 31 -181q69 37 135 37q62 0 117 -47q15 50 15 114zM407 69q17 0 47 10q-23 35 -61 61t-76 26
q-17 0 -35 -5q46 -92 125 -92z" />
    <glyph glyph-name="R" unicode="R" horiz-adv-x="720" 
d="M69 125v408q0 54 -12.5 77.5t-42.5 22.5v25h450q88 -2 123 -16q58 -27 58 -85q0 -99 -142 -172q111 -106 167 -278q26 -82 75 -82v-25h-336v25q41 2 41 33q0 41 -50 123t-92 131l-35 -12v-175q0 -54 12.5 -77.5t42.5 -22.5v-25h-314v25q30 -1 42.5 22.5t12.5 77.5z
M433 515q0 37 -22.5 57t-61.5 20q-48 0 -67 -19q-9 -10 -9 -52v-148q65 16 112.5 50.5t47.5 91.5z" />
    <glyph glyph-name="S" unicode="S" 
d="M550 677l26 -217l-21 -3q-22 56 -75.5 96.5t-112.5 40.5q-43 0 -77.5 -20t-32.5 -59q0 -8 2 -15.5t7 -13.5t9.5 -10.5t13 -9t13.5 -7.5t16 -6.5t14.5 -5t15.5 -5t13 -3.5l117 -35q71 -21 118.5 -69t47.5 -109q0 -122 -86.5 -182t-244.5 -60q-57 0 -140 15q-47 10 -66 10
q-30 0 -54 -24l-22 279l22 3q14 -88 79.5 -145.5t153.5 -57.5q146 0 146 99q0 10 -3 19t-6.5 15t-12 12.5t-13.5 10t-17 8.5t-16.5 6.5t-18.5 6t-16 5.5l-101 33q-81 25 -116 54q-59 48 -59 121q0 51 18 91.5t45 64t62.5 38.5t66.5 20.5t60 5.5q61 0 122 -10l61 -11
q42 0 62 24z" />
    <glyph glyph-name="T" unicode="T" horiz-adv-x="600" 
d="M403 585v-455q0 -57 16 -80.5t63 -24.5v-25h-363v25q47 1 63 24.5t16 80.5v455q-71 -2 -120.5 -38.5t-67.5 -104.5l-21 4l49 228q8 -14 36 -16h43h359q2 0 15.5 -0.5t21.5 0t20 2t20 5t12 9.5l46 -228l-20 -4q-51 135 -188 143z" />
    <glyph glyph-name="U" unicode="U" horiz-adv-x="680" 
d="M17 633v25h324v-25q-27 -3 -41.5 -17t-18 -29.5t-5.5 -47.5l-18 -287q-6 -85 18 -125q36 -59 119 -59q42 0 78.5 19t49.5 51q22 53 16 159l-13 242q-1 24 -3.5 37t-8.5 27.5t-19.5 21t-34.5 8.5v25h203v-25q-40 -4 -49 -25.5t-6 -68.5l15 -293q7 -131 -66 -193
q-82 -70 -221 -70q-145 0 -212 53q-47 37 -61 82t-10 123l17 298q1 27 0 46.5t-13.5 31.5t-39.5 16z" />
    <glyph glyph-name="V" unicode="V" horiz-adv-x="740" 
d="M631 502l-140 -384q-16 -39 -16 -59q0 -32 35 -34v-25h-277v25q33 5 33 32q0 10 -12 46l-136 404q-1 2 -6 18.5t-6.5 21t-7.5 19t-10 20t-11 16.5t-14.5 15.5t-17.5 9.5t-21 6v25h333v-25q-53 -8 -53 -43q0 -17 10 -47l112 -352l125 348q15 43 15 59q0 29 -40 35v25h191
v-25q-30 -10 -42 -29q-18 -27 -44 -102z" />
    <glyph glyph-name="W" unicode="W" horiz-adv-x="940" 
d="M875 531l-82 -396q-11 -55 -11 -70q0 -35 32 -40v-25h-322v25q30 3 30 33q0 6 -1 14.5t-3 18.5l-3 15l-55 315l-55 -318q-7 -45 -7 -48q0 -14 5.5 -20t19.5 -10v-25h-298v25q31 5 31 33q0 5 -2 17.5t-4.5 27.5t-3.5 19l-69 383q0 1 -3 16.5t-3.5 19.5t-4 18t-6 18.5
t-7 15.5t-9.5 15.5t-12 11t-16 9.5t-19 4v25h330v-25q-57 -4 -57 -64q0 -11 12 -86l61 -378l76 442q5 33 5 41q0 45 -44 45v25h292v-25q-23 -4 -32.5 -16.5t-9.5 -36.5q0 -9 6 -54l68 -421l84 439q7 33 7 45q0 38 -38 44v25h186v-25q-10 -3 -18.5 -7t-14.5 -8t-11 -11.5
t-7.5 -12t-5.5 -14.5t-4 -14.5t-3.5 -17.5t-3.5 -17z" />
    <glyph glyph-name="X" unicode="X" horiz-adv-x="720" 
d="M473 378l142 -237q38 -62 60 -86t53 -30v-25h-365v25q18 1 32 10t14 26q0 25 -37 85l-81 137l-60 -103q-2 -3 -12 -20t-15 -26t-12 -24t-10.5 -27t-3.5 -22q0 -31 40 -36v-25h-226v25q40 5 74 42q28 30 73 101l111 180l-87 146q-19 32 -27 45t-28 39t-40.5 39t-44.5 16
v25h362v-25q-42 -2 -42 -32q0 -13 20 -46l66 -111l47 70q44 62 44 84q0 30 -47 35v25h221v-25q-39 -5 -62.5 -25.5t-49.5 -60.5z" />
    <glyph glyph-name="Y" unicode="Y" horiz-adv-x="700" 
d="M449 300v-169q1 -59 16 -83t54 -23v-25h-344v25q39 -1 54 23t15 83v169l-155 250q-1 2 -8.5 14.5t-10.5 16.5t-10 14t-12 14t-12.5 10.5t-15.5 9.5t-17 4v25h363v-25q-39 -5 -39 -38q0 -15 24 -58l77 -138l45 72q66 107 66 132q0 28 -38 30v25h197v-25q-39 -10 -73 -56
l-79 -122z" />
    <glyph glyph-name="Z" unicode="Z" horiz-adv-x="640" 
d="M644 238l-87 -254q-7 13 -24 15q-10 1 -30 1h-501l351 589h-33q-38 0 -84 -15t-79 -37q-52 -35 -92 -106l-19 5l56 239q12 -14 30 -16q12 -1 35 -1h476l-357 -587l43 -2q96 0 175 46t121 130z" />
    <glyph glyph-name="bracketleft" unicode="[" horiz-adv-x="440" 
d="M237 585v-576l54 -67q22 -27 32.5 -34.5t29.5 -9.5v-6h-192v6q7 2 7 9t-11 22l-32 43q-13 19 -33 25v6q15 6 15 41v505q0 14 -0.5 19t-3.5 12t-11 10v6q19 6 36 29l29 39q11 15 11 23t-7 8v6h192v-6q-20 -1 -31 -9.5t-31 -33.5z" />
    <glyph glyph-name="backslash" unicode="\" horiz-adv-x="580" 
d="M226 618l225 -625q1 -2 5 -13.5t6 -16.5t7 -15t9.5 -15t11.5 -10t14 -5v-16h-180v16q17 3 17 20q0 9 -21 68l-201 572q-22 64 -38 86q-8 12 -31 20v16h183v-16q-20 -3 -20 -23q0 -4 13 -43z" />
    <glyph glyph-name="bracketright" unicode="]" horiz-adv-x="440" 
d="M202 8v576l-54 67q-22 27 -32.5 34.5t-29.5 9.5v6h192v-6q-7 -2 -7 -9t11 -22l32 -43q13 -19 33 -25v-6q-15 -6 -15 -41v-505q0 -14 0.5 -19t3.5 -12t11 -10v-6q-19 -6 -36 -29l-29 -39q-11 -15 -11 -23t7 -8v-6h-192v6q20 1 31 9.5t31 33.5z" />
    <glyph glyph-name="asciicircum" unicode="^" horiz-adv-x="600" 
d="M16 273l262 427h10l296 -427h-217l-143 207l-127 -207h-81z" />
    <glyph glyph-name="underscore" unicode="_" horiz-adv-x="500" 
d="M0 -75h500v-50h-500v50z" />
    <glyph glyph-name="grave" unicode="`" horiz-adv-x="360" 
d="M287 574l-27 -33l-114 44q-21 8 -29 11.5t-23.5 13t-21.5 22t-6 28.5q0 29 20.5 52t49.5 23q35 0 72 -54z" />
    <glyph glyph-name="a" unicode="a" horiz-adv-x="600" 
d="M357 329v8q2 49 -14 67q-25 26 -76 26q-60 0 -106.5 -32.5t-70.5 -88.5l-20 2l20 179q17 -17 33 -17q14 0 40 6q122 27 184 27q104 0 150 -36q23 -17 34 -46.5t12.5 -49t1.5 -57.5v-182v-14v-15t0.5 -14t1.5 -14.5t3 -12.5t4.5 -12t6.5 -10t9.5 -9t13 -5.5t16.5 -3.5v-25
h-208q-24 23 -35 67q-25 -37 -79 -58.5t-104 -21.5q-60 0 -105 34t-45 92q0 166 333 216zM358 272q-56 -9 -86 -29q-25 -16 -43 -42t-18 -52q0 -25 15 -43.5t39 -18.5q29 0 49.5 19.5t29 51t11.5 59t3 55.5z" />
    <glyph glyph-name="b" unicode="b" horiz-adv-x="680" 
d="M74 105v451q0 77 -54 80v25l241 14v-173l39 3q26 2 39 2q131 0 219 -74.5t88 -204.5q0 -108 -80 -172q-68 -56 -190 -56h-356v25q54 3 54 80zM261 434v-299q0 -42 12 -57q13 -16 44 -16t58.5 17t43.5 44q27 46 27 113q0 45 -16 90t-51 78t-82 33z" />
    <glyph glyph-name="c" unicode="c" horiz-adv-x="580" 
d="M561 161l-71 -176q-15 11 -42 11q-8 0 -48 -5q-38 -4 -58 -4q-132 0 -222 72t-90 202q0 118 80 181.5t201 63.5q25 0 104 -9q27 -3 28 -3q26 0 36 17l45 -199l-21 -5q-12 49 -49.5 86.5t-85.5 37.5q-58 0 -98 -47t-40 -119q0 -74 43.5 -134.5t114.5 -60.5q48 0 90 28
t64 72z" />
    <glyph glyph-name="d" unicode="d" horiz-adv-x="680" 
d="M602 675v-569q1 -77 55 -81v-25h-323q-57 0 -84 1.5t-62 10t-62 26.5q-92 62 -92 192q0 136 87.5 206t225.5 70q37 0 68 -4v56q0 37 -14.5 57t-51.5 21v25zM415 119v315q-10 2 -30 2q-33 0 -63.5 -19.5t-50.5 -49.5q-37 -56 -37 -129q0 -41 12 -79.5t42 -67.5t72 -29
q55 0 55 57z" />
    <glyph glyph-name="e" unicode="e" horiz-adv-x="600" 
d="M591 306l-360 -73q8 -70 47 -116.5t105 -46.5q58 0 105 33t70 87l21 -8l-62 -192q-20 13 -36 13q-9 0 -60 -8t-85 -8q-128 0 -208 59q-103 75 -103 204q0 121 87 188.5t212 67.5q105 0 177.5 -50.5t89.5 -149.5zM225 294l165 33v17q0 35 -22.5 60t-56.5 25
q-45 0 -66.5 -43t-19.5 -92z" />
    <glyph glyph-name="f" unicode="f" horiz-adv-x="360" 
d="M379 508l-28 -96q-2 14 -15.5 17t-47.5 3h-33v-297q0 -63 9 -81q14 -29 56 -29v-25h-307v25q54 3 55 80v327h-56v24q34 7 45 22.5t14 52.5q5 49 18.5 76.5t50.5 51.5q66 42 165 42q69 0 132 -16l-40 -141l-19 5l1 14q0 30 -17 54t-45 24q-29 0 -45.5 -24.5t-16.5 -70.5
v-53h31h15h17.5t15 1t16.5 2.5t14 4.5t15 7z" />
    <glyph glyph-name="g" unicode="g" horiz-adv-x="680" 
d="M18 -148l105 139l18 -13q-7 -16 -7 -29q0 -43 42 -71q48 -33 128 -33q65 0 111 21q25 10 43.5 30t18.5 44q0 29 -17.5 42.5t-46.5 11.5l-106 -5q-62 -3 -108 6t-86 41q-82 65 -82 184q0 69 31.5 130t88.5 97q33 21 85 32t86.5 12.5t92.5 1.5h238v-25q-20 -2 -32 -10.5
t-16.5 -26t-5.5 -29t-1 -34.5v-10v-208q0 -4 -0.5 -20t0 -21.5t2.5 -16.5t7 -19t13 -16q28 -27 39.5 -47t11.5 -54q0 -53 -40.5 -91t-98.5 -61q-95 -35 -219 -35q-193 0 -295 83zM411 138v293q-85 6 -132.5 -53t-47.5 -147q0 -72 31.5 -121.5t98.5 -49.5q9 0 16 1t12.5 4.5
t9 5t6 8.5t4 9t2 12t0.5 11.5v13.5v13z" />
    <glyph glyph-name="h" unicode="h" 
d="M590 338v-233q-2 -77 53 -80v-25h-296v25q56 3 56 80v213q0 17 -1 28t-5.5 25t-15 21.5t-27.5 7.5q-26 0 -47.5 -17t-32.5 -42q-18 -41 -18 -114l1 -122q0 -77 54 -80v-25h-295v25q54 3 54 80v451q0 77 -54 80v25l240 14v-266q41 44 95 70.5t111 26.5q66 0 102 -47
q26 -34 26 -121z" />
    <glyph glyph-name="i" unicode="i" horiz-adv-x="320" 
d="M71 106v276q0 77 -54 80v25l240 14v-395q0 -78 56 -81v-25h-296v25q54 3 54 81zM160 553q-42 0 -71 24.5t-29 65.5t31.5 65.5t74.5 24.5q42 0 69.5 -25.5t27.5 -67.5q0 -39 -31 -63t-72 -24z" />
    <glyph glyph-name="j" unicode="j" horiz-adv-x="360" 
d="M-127 -171l78 142l18 -9q-9 -23 -9 -46q0 -31 22.5 -52.5t52.5 -21.5q41 0 53.5 25.5t12.5 90.5l-1 424q0 38 -14.5 59.5t-39.5 20.5v25l242 14v-527q0 -55 -10.5 -88.5t-46.5 -61.5q-62 -48 -164 -48q-111 0 -194 53zM194 549q-42 0 -71 25t-29 66t32 65t74 24
t69.5 -25.5t27.5 -67.5q0 -39 -31 -63t-72 -24z" />
    <glyph glyph-name="k" unicode="k" horiz-adv-x="640" 
d="M250 293l74 71q73 67 73 80t-14 19t-29 5v25h279v-25q-105 -6 -191 -80l-18 -16q75 -95 112 -167l37 -73q1 -2 11.5 -23.5t16.5 -30.5t17 -24.5t23 -22t26 -6.5v-25h-334v25q20 0 34.5 10.5t14.5 29.5q0 35 -33.5 92.5t-67.5 97.5l-31 -29v-90v-10q0 -24 1 -36.5t6 -30
t18 -26t35 -8.5v-25h-301v25q54 3 54 81v450q0 77 -54 80v25l241 14v-382z" />
    <glyph glyph-name="l" unicode="l" horiz-adv-x="340" 
d="M263 675v-570q3 -77 56 -80v-25h-298v25q54 3 55 80v451q-1 77 -55 80v25z" />
    <glyph glyph-name="m" unicode="m" horiz-adv-x="980" 
d="M75 105v277q0 77 -54 80v25l213 14q6 -10 11 -23.5t7 -22.5t5.5 -26t4.5 -23q96 100 190 100q105 0 131 -100q37 44 87.5 72t103.5 28q64 0 102 -44q28 -33 28 -126v-231q0 -77 56 -80v-25h-300v25q57 3 57 80v194q0 63 -13 82q-12 16 -34 17q-43 0 -68 -49
q-19 -36 -19 -126v-118q0 -77 55 -80v-25h-300v25q58 3 58 80v191q0 1 0.5 16.5t0 20l-2 18t-4.5 19t-8 14t-14 11.5t-20 3q-22 0 -42 -16.5t-30 -38.5q-14 -33 -14 -106v-132q4 -77 57 -80v-25h-298v25q54 3 54 80z" />
    <glyph glyph-name="n" unicode="n" 
d="M70 106v276q0 77 -54 80v25l213 14q6 -10 11 -23.5t7 -22.5t5.5 -26t4.5 -23q84 100 199 100q77 -3 105.5 -43t28.5 -127v-230q0 -78 55 -81v-25h-299v25q57 3 57 81v192v16t-0.5 19t-2 18t-4.5 18.5t-8 14t-13 11t-19 3.5q-26 0 -48.5 -16t-32.5 -39q-18 -37 -18 -110
v-127q0 -78 60 -81v-25h-301v25q54 3 54 81z" />
    <glyph glyph-name="o" unicode="o" 
d="M329 -13q-126 0 -204 52q-46 30 -70 83t-24 113q0 126 89.5 198.5t217.5 72.5q126 0 208.5 -68t82.5 -193q0 -123 -87.5 -190.5t-212.5 -67.5zM340 64q35 0 56.5 34.5t27 68t5.5 64.5q0 32 -4.5 63.5t-15 63.5t-32 52t-50.5 20t-49 -16.5t-29.5 -43.5t-13.5 -52t-4 -52
q0 -29 5 -60.5t16 -65t34 -55t54 -21.5z" />
    <glyph glyph-name="p" unicode="p" horiz-adv-x="680" 
d="M71 -112v500q-1 77 -55 80v25h322q140 0 211 -57q45 -38 71 -92t26 -112q0 -119 -89 -187q-67 -55 -212 -55l-87 6v-108q0 -38 16.5 -58t45.5 -22v-25h-313v25q29 2 46.5 22t17.5 58zM258 428v-291q0 -48 8 -58q14 -19 49 -19q66 0 98.5 54t32.5 124q0 79 -44 134.5
t-121 55.5h-23z" />
    <glyph glyph-name="q" unicode="q" horiz-adv-x="700" 
d="M611 388v-500q3 -77 64 -80v-25h-314v25q29 2 46 22t17 58v108l-51 -6l-51 -3q-128 0 -199 52q-43 31 -66 81t-23 106q0 59 26.5 116t72.5 93q72 58 225 58h307v-25q-54 -3 -54 -80zM424 142v286q-89 8 -139.5 -49t-50.5 -148q0 -67 33 -120.5t96 -53.5q22 0 35 4.5
t18.5 16.5t6.5 21.5t1 32.5v10z" />
    <glyph glyph-name="r" unicode="r" horiz-adv-x="440" 
d="M248 226v-121q0 -39 16.5 -59.5t42.5 -20.5v-25h-301v25q25 0 40 21t15 60v276q0 77 -55 80v25l212 14q24 -34 30 -111q19 44 64.5 78t91.5 34q22 0 50 -7l-35 -137q-29 29 -73 29q-53 0 -82 -52q-6 -10 -9.5 -20t-5 -23.5t-2 -19.5t0 -24.5t0.5 -21.5z" />
    <glyph glyph-name="s" unicode="s" horiz-adv-x="560" 
d="M474 503l7 -146l-19 -2q-44 88 -147 88q-10 0 -22.5 -1.5t-26.5 -5.5t-23 -12.5t-9 -20.5q0 -6 2.5 -11.5t8.5 -10l10 -7.5t14 -6t13.5 -4.5t13.5 -3.5l11 -3l84 -23q67 -16 98 -39q52 -35 52 -102q0 -47 -24.5 -89t-64.5 -68q-76 -49 -184 -49q-50 0 -115 13
q-57 10 -61 10q-27 0 -45 -19l-14 198l21 4q17 -65 62 -101t111 -36q45 0 83.5 18t38.5 58q0 8 -3 14.5t-10 11.5t-13.5 9t-16.5 7t-16.5 4.5t-17 4t-13.5 3.5l-73 17q-66 16 -107.5 46t-41.5 88q0 42 23.5 77t62.5 56q66 36 167 36q47 0 87 -7q35 -7 62 -7q16 0 35 11z" />
    <glyph glyph-name="t" unicode="t" horiz-adv-x="440" 
d="M261 423v-234q0 -21 1.5 -35t6.5 -32.5t18.5 -28.5t33.5 -10q58 0 99 88l21 -8l-51 -143q-75 -33 -159 -33q-87 0 -126 47q-14 16 -21.5 40.5t-8.5 41.5t-1 47v260h-71v25q40 9 62 42t22 76q0 19 -8 53q91 15 182 73v-208h76q42 0 62 11l-30 -79q-9 7 -45 7h-63z" />
    <glyph glyph-name="u" unicode="u" 
d="M585 501v-396q0 -77 54 -80v-25h-229q-10 29 -12 90q-40 -46 -94.5 -74.5t-111.5 -28.5q-66 0 -101 43q-13 16 -19 38t-6.5 35t-0.5 43v236q0 77 -55 80v25l242 14v-330q0 -43 12.5 -59.5t35.5 -16.5q27 0 47.5 18t31.5 46q19 50 19 149v61q0 46 -12.5 69t-46.5 24v25z
" />
    <glyph glyph-name="v" unicode="v" horiz-adv-x="580" 
d="M343 158l88 225q14 34 14 54q0 27 -34 31v25h169v-25q-12 -2 -22.5 -9.5t-17 -14.5t-15 -22.5t-11.5 -22t-10 -25.5t-8 -21l-98 -244q-19 -49 -19 -61q0 -18 22 -23v-25h-228v25q11 0 17.5 6.5t6.5 17.5q0 3 -12 37l-112 303q-7 19 -11 28t-13 23.5t-21 21t-29 6.5v25
h304v-25q-42 -2 -42 -31q0 -11 11 -49z" />
    <glyph glyph-name="w" unicode="w" horiz-adv-x="820" 
d="M607 152l25 106l36 142q1 4 3 12.5t3.5 16.5t1.5 13q0 24 -36 26v25h172v-25q-28 -5 -43 -24q-19 -25 -48 -124l-58 -196q-2 -6 -7.5 -23t-9.5 -31.5t-4 -21.5q0 -19 17 -23v-25h-207v25q15 3 15 15q0 5 -2 13l-59 185l-59 -175q-5 -17 -5 -22q0 -14 17 -16v-25h-216v25
q17 3 17 20q0 10 -9 40l-64 254l-5.5 22t-6.5 25t-7 22.5t-10.5 22.5t-14 17t-19 14.5t-23.5 5.5v25h299v-25q-39 -2 -39 -40l7 -49l46 -227l27 85l91 256h75z" />
    <glyph glyph-name="x" unicode="x" horiz-adv-x="620" 
d="M399 290l149 -214q14 -17 20 -24t20.5 -16.5t28.5 -10.5v-25h-308v25q29 3 29 19q0 15 -18 43l-65 102l-62 -79q-32 -39 -32 -62q0 -19 29 -23v-25h-193v25q10 2 20 6t17.5 8t17 12t14.5 12.5t15 15.5t13 14.5t13.5 17t12.5 15.5l96 122l-91 140q-14 21 -18.5 27.5
t-18 22.5t-27 22.5t-29.5 7.5v25h314v-25q-36 -5 -36 -25q0 -14 24 -50l30 -47l15 19q1 2 10.5 14t13.5 18l11 16.5t10 19t3 16.5q0 17 -28 19v25h187v-25q-35 -5 -56.5 -23t-49.5 -53z" />
    <glyph glyph-name="y" unicode="y" horiz-adv-x="580" 
d="M347 197l64 169q16 46 16 65q0 39 -43 37v25h203v-25q-11 -1 -21 -5t-17.5 -8.5t-15.5 -15t-13 -16.5t-12 -20.5t-9.5 -19.5t-9 -21t-7.5 -18l-176 -406q-33 -75 -73.5 -113t-111.5 -38q-66 0 -121 42l59 130l21 -8q-3 -12 -3 -23q0 -22 18.5 -37t39.5 -15q40 0 67 36
t27 77q0 46 -39 128l-121 266q-1 2 -6.5 14t-7 15.5t-7 14t-9 14.5t-10 11t-12.5 9.5t-14.5 4.5t-17.5 2v25h325v-25q-49 2 -49 -31q0 -16 15 -51z" />
    <glyph glyph-name="z" unicode="z" horiz-adv-x="540" 
d="M532 493l-264 -427q63 -3 71 -3q59 0 108 28t70 86l21 -6l-54 -191q-9 13 -32 18q-13 2 -37 2h-403l265 426q-52 4 -56 4q-39 0 -81.5 -27.5t-56.5 -72.5l-20 5l39 178q8 -14 27 -17q11 -3 33 -3h370z" />
    <glyph glyph-name="braceleft" unicode="{" horiz-adv-x="300" 
d="M216 177v-177q0 -46 15 -70t56 -38h-29h-26.5t-22 0.5t-21 1t-17 2.5t-17.5 4.5t-15 6.5t-15 9q-24 17 -31 41t-7 61v175q0 20 -0.5 28t-5 21t-13.5 24q-20 25 -54 31q45 12 59 34.5t14 71.5v154q0 81 28 111q16 17 41.5 24.5t57.5 7.5t74 -1q-39 -12 -55 -37.5
t-16 -70.5v-164q0 -57 -15.5 -87.5t-64.5 -42.5q47 -11 63.5 -39t16.5 -81z" />
    <glyph glyph-name="bar" unicode="|" horiz-adv-x="600" 
d="M247 -250v1000h105v-1000h-105z" />
    <glyph glyph-name="braceright" unicode="}" horiz-adv-x="300" 
d="M84 427v164q0 45 -15.5 70.5t-55.5 37.5q42 1 74 1t57.5 -7.5t41.5 -24.5q28 -30 28 -111v-154q0 -49 14.5 -71t58.5 -34q-34 -8 -54 -32q-9 -11 -13.5 -24t-5 -21t-0.5 -28v-175q0 -25 -1.5 -40t-10.5 -32.5t-26 -29.5q-7 -5 -15 -9t-15 -6.5t-17.5 -4.5t-17 -2.5
t-21 -1t-22 -0.5h-26.5h-29q41 14 56 38t15 70v177q0 53 16.5 81.5t63.5 39.5q-49 11 -64.5 41.5t-15.5 87.5z" />
    <glyph glyph-name="asciitilde" unicode="~" horiz-adv-x="600" 
d="M459 403l28 -17q-11 -22 -27 -45.5t-26 -36t-12 -13.5q-23 -26 -68 -26q-24 0 -62 15q-56 22 -85 22q-20 0 -32 -7.5t-34 -28.5l-28 17q15 27 23.5 41t26 37t36.5 33.5t41 10.5q19 0 76 -19q55 -20 78 -20q31 0 65 37z" />
    <glyph glyph-name="uni00A0" unicode="&#xa0;" horiz-adv-x="340" 
 />
    <glyph glyph-name="exclamdown" unicode="&#xa1;" horiz-adv-x="380" 
d="M193 506q46 0 78.5 -29t32.5 -74q0 -47 -33 -73.5t-81 -26.5q-47 0 -79.5 27t-32.5 73t34 74.5t81 28.5zM306 -173h-262q67 119 67 322q0 81 -11 135q37 -14 76 -14q51 0 106 24q-16 -149 -16 -222q0 -132 40 -245z" />
    <glyph glyph-name="cent" unicode="&#xa2;" horiz-adv-x="680" 
d="M457 498l-78 -323q26 -7 46 -7q44 0 76 29.5t46 73.5l21 -6l-46 -174q-11 10 -28 10q-6 0 -33.5 -3.5t-49.5 -5t-49 1.5l-9 -32q-11 -51 -11 -53q0 -20 22 -25v-14h-120v15q11 1 18.5 9t9.5 15l6 21l17 72q-93 18 -149 82.5t-56 158.5q0 108 86 174q73 57 192 57h38l6 25
q12 45 12 61q0 17 -20 23v14h126v-14q-15 -3 -24 -12t-11.5 -17t-7.5 -26l-15 -61q11 -1 41 -10.5t40 -9.5q12 0 25 8l-39 -171l-19 4v19q0 70 -63 91zM320 207l69 295q-54 -4 -89.5 -53t-35.5 -106q0 -95 56 -136z" />
    <glyph glyph-name="sterling" unicode="&#xa3;" horiz-adv-x="680" 
d="M668 181l-69 -194q-18 -2 -27 -2q-78 0 -162 56q-79 -57 -197 -57q-32 0 -64 5.5t-65 17.5t-54 37t-21 59q0 35 31 63q34 29 97 29q51 0 130 -30q3 51 -25.5 91.5t-78.5 40.5q-62 0 -99 -60l-16 7l55 134q2 -5 6.5 -8.5t11.5 -4.5t11 -1.5t13.5 0t10.5 0.5h21
q-27 43 -27 89q0 47 26 91.5t67 73.5q80 56 195 56q82 0 139 -39.5t60 -117.5l-123 -86l-10 16q31 34 31 75q0 31 -18 54.5t-48 23.5q-44 0 -76.5 -40.5t-32.5 -85.5q0 -48 32 -81t80 -33q68 0 113 59l14 -7l-50 -134q-6 17 -35 17h-70l-27 3q56 -59 56 -127q0 -48 -19 -78
q33 -12 57 -12q49 0 83.5 30t53.5 78zM251 102q-49 27 -89 27q-20 0 -37 -9.5t-17 -27.5t18.5 -28.5t37.5 -10.5q45 0 87 49z" />
    <glyph glyph-name="currency" unicode="&#xa4;" horiz-adv-x="680" 
d="M340 416q-43 0 -69 -30t-26 -75t26 -75t69 -30t69 30t26 75t-26 75t-69 30zM58 98l98 98q-31 52 -31 115q0 64 31 115l-98 98l69 69l98 -98q52 31 115 31q65 0 115 -31l98 98l69 -69l-98 -98q31 -50 31 -115q0 -66 -31 -114l98 -99l-69 -69l-98 99q-52 -32 -115 -32
t-115 31l-98 -98z" />
    <glyph glyph-name="yen" unicode="&#xa5;" horiz-adv-x="680" 
d="M170 0v24q42 1 54 20.5t12 71.5v132h-90q-28 0 -38.5 -2t-21.5 -11h-14v80h14q18 -11 61 -11h89l-39 64h-77q-31 0 -40 -2t-20 -11h-13v81h13q18 -12 60 -12h41l-85 136q-26 42 -40 55t-40 19v24h345v-24q-41 -3 -41 -38q0 -12 19 -47l83 -148l51 81q44 77 51 92
q8 14 8 29q0 12 -6.5 19t-13 9t-17.5 3v24h197v-24q-41 -13 -69 -50q-20 -26 -78 -118l-25 -42h59q24 0 42 12h14v-81h-14q-19 13 -62 13h-74l-40 -64h88q27 0 38 2t24 13h13v-84h-13q-14 9 -23 11t-39 2h-88v-133q0 -22 1.5 -34.5t7.5 -28t20.5 -22t38.5 -6.5v-24h-323z
" />
    <glyph glyph-name="brokenbar" unicode="&#xa6;" horiz-adv-x="600" 
d="M247 325v350h105v-350h-105zM247 -175v350h105v-350h-105z" />
    <glyph glyph-name="section" unicode="&#xa7;" horiz-adv-x="740" 
d="M337 228l163 -52q24 26 24 51q0 10 -3.5 18.5t-12 15.5t-15.5 12.5t-20 10.5l-19.5 7.5t-21 7t-16.5 5.5l-153 52q-26 -24 -26 -51q0 -7 2 -13.5t4.5 -12t8 -10.5t9.5 -8.5t12 -8t12.5 -6.5t14 -5.5t13 -4.5t13 -4t11.5 -4zM578 671l8 -165l-21 -2q-24 48 -67.5 73.5
t-98.5 25.5q-46 0 -77 -16t-31 -52q0 -15 9 -27.5t18 -19.5t29 -15.5t26.5 -10.5t26.5 -8l88 -27q136 -43 136 -144q0 -77 -69 -138q55 -37 55 -110q0 -97 -71 -143.5t-174 -46.5q-51 0 -118 13q-6 1 -19.5 4t-24.5 5t-19 2q-29 0 -46 -20l-15 204l22 4q17 -67 63.5 -104
t114.5 -37q164 0 164 77q0 46 -75 68l-145 46q-136 44 -136 142q0 79 76 136q-57 40 -57 108q0 82 72 137q58 44 174 44q27 0 79 -8q50 -8 64 -8q18 0 39 13z" />
    <glyph glyph-name="dieresis" unicode="&#xa8;" horiz-adv-x="480" 
d="M66 643q0 31 22 53.5t54 22.5t54 -22.5t22 -53.5t-22 -53.5t-54 -22.5t-54 22.5t-22 53.5zM254 643q0 31 22 53.5t54 22.5t54 -22.5t22 -53.5t-22 -53.5t-54 -22.5t-54 22.5t-22 53.5z" />
    <glyph glyph-name="copyright" unicode="&#xa9;" horiz-adv-x="820" 
d="M603 263l-48 -126q-8 11 -19 11q-8 0 -47.5 -2.5t-45.5 -2.5q-109 0 -176 54.5t-67 141.5q0 81 58 131.5t156 50.5q30 0 60 -5q24 -6 42 -6t31 19l34 -162l-17 -4q-46 106 -129 106q-44 0 -74.5 -31.5t-30.5 -86.5q0 -69 41 -112.5t101 -43.5q78 0 112 74zM64 333
q0 89 43 168t123.5 129t180.5 50q145 0 245.5 -102t100.5 -245q0 -142 -100.5 -244t-245.5 -102q-149 0 -248 104t-99 242zM112 333q0 -119 85.5 -208.5t213.5 -89.5q125 0 211.5 88t86.5 210q0 123 -87 211t-211 88q-128 0 -213.5 -90t-85.5 -209z" />
    <glyph glyph-name="ordfeminine" unicode="&#xaa;" horiz-adv-x="440" 
d="M112 570l-11 1l11 95q1 -1 3.5 -3t4.5 -3q4 -3 9 -3q1 0 22 3q61 14 99 14q61 0 84 -24q19 -20 19 -82v-107q0 -40 28 -42v-13h-109q-13 11 -18 35q-36 -42 -98 -42q-32 0 -55.5 18t-23.5 49q0 91 177 113q0 32 -8 41q-12 15 -40 15q-32 0 -57 -17.5t-37 -47.5zM176 483
q0 -11 8 -21t19 -10q51 0 51 99q-29 -3 -53.5 -21.5t-24.5 -46.5z" />
    <glyph glyph-name="guillemotleft" unicode="&#xab;" horiz-adv-x="440" 
d="M219 250l91 161l67 -31l-44 -130l44 -133l-67 -33zM57 250l91 161l67 -31l-44 -130l44 -133l-67 -33z" />
    <glyph glyph-name="logicalnot" unicode="&#xac;" horiz-adv-x="600" 
d="M315 105v178h-239v89h448v-267h-209z" />
    <glyph glyph-name="uni00AD" unicode="&#xad;" horiz-adv-x="340" 
d="M305 327l-71 -167q-10 27 -53 27h-66q-50 0 -71 -27l-15 8l71 166q2 -6 6.5 -10.5t7.5 -7t11 -3.5t10.5 -1h13h11.5h62q54 0 68 22z" />
    <glyph glyph-name="registered" unicode="&#xae;" horiz-adv-x="820" 
d="M626 172v-19h-189v19q23 2 23 16q0 16 -20 52t-55 80l-16 -4v-96q0 -26 5.5 -36.5t27.5 -11.5v-19h-180v19q18 4 23.5 13t5.5 35v227q0 26 -5 35t-24 13v18h239q77 0 97 -19q20 -15 20 -43q0 -19 -8 -34.5t-22.5 -27.5t-23.5 -17.5t-24 -13.5q54 -65 89 -152
q13 -32 37 -34zM369 436v-74q88 22 88 71q0 20 -15 30t-36 10q-13 0 -21 -2.5t-11.5 -9t-4 -11t-0.5 -14.5zM64 333q0 89 43 168t123.5 129t180.5 50q145 0 245.5 -102t100.5 -245q0 -142 -100.5 -244t-245.5 -102q-149 0 -248 104t-99 242zM112 333q0 -119 85.5 -208.5
t213.5 -89.5q125 0 211.5 88t86.5 210q0 123 -87 211t-211 88q-128 0 -213.5 -90t-85.5 -209z" />
    <glyph glyph-name="macron" unicode="&#xaf;" horiz-adv-x="520" 
d="M66 681h394v-93h-394v93z" />
    <glyph glyph-name="degree" unicode="&#xb0;" horiz-adv-x="400" 
d="M350 524q0 -62 -44 -106t-106 -44t-106 44t-44 106q-1 62 43.5 106t106.5 44t106 -44t44 -106zM287 524q0 36 -25.5 61.5t-61.5 25.5t-62 -25.5t-25 -61.5q-1 -36 25 -61.5t62 -25.5t61.5 25.5t25.5 61.5z" />
    <glyph glyph-name="plusminus" unicode="&#xb1;" horiz-adv-x="600" 
d="M342 299v-152q0 -19 13 -30v-14h-113v14q17 10 17 30v152h-152q-19 0 -30 -17h-13v112h13q13 -13 31 -13h151v152q0 19 -17 30v14h113v-14q-13 -8 -13 -30v-152h151q18 0 31 13h13v-112h-13q-11 17 -31 17h-151zM64 -51v112h13q13 -13 31 -13h385q20 0 31 13h13v-112h-13
q-11 17 -31 17h-386q-19 0 -30 -17h-13z" />
    <glyph glyph-name="twosuperior" unicode="&#xb2;" horiz-adv-x="408" 
d="M399 382l-55 -123q-6 8 -17 10q-7 1 -21 1h-298q88 57 161 134.5t73 148.5q0 29 -20.5 49t-51.5 20q-45 0 -75.5 -26.5t-28.5 -67.5l-13 -3l-28 102q97 47 187 47q62 0 114 -30.5t52 -84.5q0 -46 -36.5 -87t-92.5 -82l-47 -35h100h8q16 0 24 0.5t19 3t19 9.5t15 19z" />
    <glyph glyph-name="threesuperior" unicode="&#xb3;" horiz-adv-x="408" 
d="M370 622l-121 -88q59 2 101.5 -32.5t42.5 -88.5q0 -69 -66 -116q-55 -37 -143 -37q-97 0 -168 45l50 98l14 -6q-5 -10 -5 -24q0 -32 28.5 -50t64.5 -18q39 0 71 22.5t32 58.5q-3 36 -30.5 56.5t-65.5 22t-80 -5.5v4l159 122h-112h-9.5h-11t-9.5 -0.5t-10.5 -1t-9.5 -2
t-9 -3.5t-7.5 -4.5t-7.5 -6.5t-5 -9l-12 5l43 113h1q4 -7 14 -10q12 -2 18 -2h222z" />
    <glyph glyph-name="acute" unicode="&#xb4;" horiz-adv-x="360" 
d="M66 574l78 107q12 17 20 26t22.5 18.5t30.5 9.5q29 0 49.5 -23t20.5 -52q0 -13 -6 -24.5t-11 -17.5t-21 -14t-19.5 -9.5t-22.5 -9.5l-115 -44z" />
    <glyph glyph-name="mu" unicode="&#xb5;" 
d="M639 25v-25h-229q-10 29 -12 90q-70 -81 -164 -98q0 -97 40 -209h-259q50 91 50 267v332q-1 77 -55 80v25l242 14v-309v-7q0 -19 1 -30t4.5 -27.5t14.5 -24.5t28 -8q27 0 47.5 18t31.5 46q19 47 19 133v58v15v15.5t-0.5 14.5t-1.5 15t-3 13t-5 13t-7.5 9.5t-10.5 8.5
t-13.5 5.5t-17.5 2.5v25l246 14v-396q0 -77 54 -80z" />
    <glyph glyph-name="paragraph" unicode="&#xb6;" horiz-adv-x="540" 
d="M454 565h21q7 0 54 14l-30 -78q-8 11 -29 11h-16v-408q0 -44 -10 -74.5t-41 -56.5q-58 -49 -156 -49q-54 0 -99.5 18.5t-65 35t-43.5 42.5l86 140l17 -8q-9 -54 -9 -76q0 -46 36 -70.5t84 -24.5q106 0 106 103v89h-52q-75 0 -126.5 13.5t-91.5 57.5q-44 49 -44 112
q0 47 26 90.5t68 69.5q82 49 189 49h31v58q36 12 52.5 22t42.5 33v-113zM359 226v286h-12q-53 0 -81.5 -44.5t-28.5 -115.5q0 -126 92 -126h30z" />
    <glyph glyph-name="periodcentered" unicode="&#xb7;" horiz-adv-x="340" 
d="M168 226q-46 0 -78.5 29t-32.5 74q0 47 33 73.5t81 26.5q47 0 79.5 -27t32.5 -73t-34 -74.5t-81 -28.5z" />
    <glyph glyph-name="cedilla" unicode="&#xb8;" horiz-adv-x="360" 
d="M259 0l-86 -43l2 -7q30 10 46 10q34 0 57.5 -19.5t23.5 -52.5q0 -52 -42 -79.5t-101 -36.5q-46 -5 -59 -19l-34 78q19 -10 47 -10q30 0 57.5 18t27.5 46q0 14 -12 22.5t-27 8.5q-41 0 -81 -42l5 93q6 -6 12 -6q11 0 35 11l57 28h72z" />
    <glyph glyph-name="onesuperior" unicode="&#xb9;" horiz-adv-x="408" 
d="M270 670v-314q0 -23 1.5 -34.5t13 -23.5t33.5 -13v-15h-218v15q17 1 27.5 7t14.5 18t5 21t1 26v197q0 15 -0.5 21t-3 17.5t-11 16.5t-21.5 5t-19 -2l-3 15z" />
    <glyph glyph-name="ordmasculine" unicode="&#xba;" horiz-adv-x="440" 
d="M216 398q-66 0 -113 34t-47 97q0 67 49.5 106t118.5 39q68 0 114 -36.5t46 -102.5q0 -67 -49.5 -102t-118.5 -35zM225 438q26 0 37 29.5t11 59.5q0 22 -3.5 43.5t-16.5 42.5t-35 21q-28 0 -39.5 -27.5t-11.5 -60.5q0 -37 13.5 -72.5t44.5 -35.5z" />
    <glyph glyph-name="guillemotright" unicode="&#xbb;" horiz-adv-x="440" 
d="M222 250l-91 -166l-67 33l44 133l-44 130l67 31zM383 250l-91 -166l-66 33l43 133l-43 130l66 31z" />
    <glyph glyph-name="onequarter" unicode="&#xbc;" horiz-adv-x="1020" 
d="M666 658v-16q-9 -2 -16 -5.5t-13 -10t-10.5 -11t-9 -14.5t-7 -14.5t-7 -16.5t-5.5 -15l-188 -456q-23 -52 -23 -62q0 -17 18 -21v-16h-151v16q6 1 11.5 3t10.5 6t8.5 7t8 10t6.5 10t6 11.5t5 11t4.5 12t4.5 10.5l204 490q14 28 14 36q0 19 -18 19v16h147zM255 664v-314
q0 -23 1.5 -34.5t13 -23.5t33.5 -13v-15h-218v15q17 1 27.5 7t14.5 18t5 21t1 26v197q0 15 -0.5 21t-3 17.5t-11 16.5t-21.5 5t-19 -2l-3 15zM745 101h-146q-37 0 -47 -10l-1 9q0 29 26 68l25 37q1 2 7 10.5t8 12t7.5 12t7.5 13t7 13t7 14t5.5 13t5 13.5t2.5 12.5t1 12.5
q0 20 -17 29q53 31 97 84q17 -26 17 -61q0 -66 -95 -177l-52 -60h135v143q48 2 79.5 26.5t37.5 66.5h4v-236h13q18 0 26 0.5t20 5.5t19 16l11 -1l-24 -84l-9 1q1 4 0 7t-4 5t-5.5 3t-7.5 1.5t-7.5 0.5h-8h-6.5h-17v-39q3 -45 38 -48v-14h-201v14q41 3 42 48v39z" />
    <glyph glyph-name="onehalf" unicode="&#xbd;" horiz-adv-x="1020" 
d="M955 112l-55 -123q-6 8 -17 10q-7 1 -21 1h-298q88 57 161 134.5t73 148.5q0 29 -20.5 49t-51.5 20q-45 0 -75.5 -26.5t-28.5 -67.5l-13 -3l-28 102q97 47 187 47q62 0 114 -30.5t52 -84.5q0 -46 -36.5 -87t-92.5 -82l-47 -35h100h8q16 0 24 0.5t19 3t19 9.5t15 19z
M666 658v-16q-9 -2 -16 -5.5t-13 -10t-10.5 -11t-9 -14.5t-7 -14.5t-7 -16.5t-5.5 -15l-188 -456q-23 -52 -23 -62q0 -17 18 -21v-16h-151v16q6 1 11.5 3t10.5 6t8.5 7t8 10t6.5 10t6 11.5t5 11t4.5 12t4.5 10.5l204 490q14 28 14 36q0 19 -18 19v16h147zM255 664v-314
q0 -23 1.5 -34.5t13 -23.5t33.5 -13v-15h-218v15q17 1 27.5 7t14.5 18t5 21t1 26v197q0 15 -0.5 21t-3 17.5t-11 16.5t-21.5 5t-19 -2l-3 15z" />
    <glyph glyph-name="threequarters" unicode="&#xbe;" horiz-adv-x="1020" 
d="M379 616l-121 -88q59 2 101.5 -32.5t42.5 -88.5q0 -69 -66 -116q-55 -37 -143 -37q-97 0 -168 45l50 98l14 -6q-5 -10 -5 -24q0 -32 28.5 -50t64.5 -18q39 0 71 22.5t32 58.5q-3 36 -30.5 56.5t-65.5 22t-80 -5.5v4l159 122h-112h-9.5h-11t-9.5 -0.5t-10.5 -1t-9.5 -2
t-9 -3.5t-7.5 -4.5t-7.5 -6.5t-5 -9l-12 5l43 113h1q4 -7 14 -10q12 -2 18 -2h222zM785 101h-146q-37 0 -47 -10l-1 9q0 29 26 68l25 37q1 2 7 10.5t8 12t7.5 12t7.5 13t7 13t7 14t5.5 13t5 13.5t2.5 12.5t1 12.5q0 20 -17 29q53 31 97 84q17 -26 17 -61q0 -66 -95 -177
l-52 -60h135v143q48 2 79.5 26.5t37.5 66.5h4v-236h13q18 0 26 0.5t20 5.5t19 16l11 -1l-24 -84l-9 1q1 4 0 7t-4 5t-5.5 3t-7.5 1.5t-7.5 0.5h-8h-6.5h-17v-39q3 -45 38 -48v-14h-201v14q41 3 42 48v39zM726 658v-16q-9 -2 -16 -5.5t-13 -10t-10.5 -11t-9 -14.5t-7 -14.5
t-7 -16.5t-5.5 -15l-188 -456q-23 -52 -23 -62q0 -17 18 -21v-16h-151v16q6 1 11.5 3t10.5 6t8.5 7t8 10t6.5 10t6 11.5t5 11t4.5 12t4.5 10.5l204 490q14 28 14 36q0 19 -18 19v16h147z" />
    <glyph glyph-name="questiondown" unicode="&#xbf;" horiz-adv-x="560" 
d="M158 153l76 33q78 32 78 64q0 10 -9 28l5 -1q32 -6 54 -6q45 0 89 29q12 -22 12 -47t-16 -48t-31 -35t-43 -31l-35 -23q-110 -73 -110 -141q0 -43 30.5 -67.5t74.5 -24.5q67 0 115 47t48 114v16h25l18 -222q-15 18 -30 18q-9 0 -61 -14q-108 -32 -179 -33
q-46 0 -88.5 9.5t-80.5 29.5t-60.5 57t-22.5 87q0 103 141 161zM364 506q47 0 79 -28.5t32 -74.5q0 -48 -32.5 -74t-81.5 -26q-47 0 -79.5 26.5t-32.5 72.5t34 75t81 29z" />
    <glyph glyph-name="Agrave" unicode="&#xc0;" horiz-adv-x="780" 
d="M242 252l-36 -102q-19 -57 -19 -81q0 -39 46 -44v-25h-220v25q16 3 29.5 13t21.5 18.5t18 27t13 26t12 29.5l157 415q17 41 17 54q0 22 -22 25v25h292v-25q-23 -3 -23 -25q0 -9 156 -470q1 -2 7.5 -21.5t9 -26t10.5 -22t14.5 -22t17.5 -13.5t24 -8v-25h-345v25
q24 2 39.5 17.5t15.5 40.5q0 34 -25.5 68.5t-58.5 56.5q-70 48 -151 44zM412 288l-76 237l-63 -188q67 1 139 -49zM497 739l-27 -33l-114 44q-21 8 -29 11.5t-23.5 13t-21.5 22t-6 28.5q0 29 20.5 52t49.5 23q35 0 72 -54z" />
    <glyph glyph-name="Aacute" unicode="&#xc1;" horiz-adv-x="780" 
d="M242 252l-36 -102q-19 -57 -19 -81q0 -39 46 -44v-25h-220v25q16 3 29.5 13t21.5 18.5t18 27t13 26t12 29.5l157 415q17 41 17 54q0 22 -22 25v25h292v-25q-23 -3 -23 -25q0 -9 156 -470q1 -2 7.5 -21.5t9 -26t10.5 -22t14.5 -22t17.5 -13.5t24 -8v-25h-345v25
q24 2 39.5 17.5t15.5 40.5q0 34 -25.5 68.5t-58.5 56.5q-70 48 -151 44zM412 288l-76 237l-63 -188q67 1 139 -49zM306 739l78 107q12 17 20 26t22.5 18.5t30.5 9.5q29 0 49.5 -23t20.5 -52q0 -13 -6 -24.5t-11 -17.5t-21 -14t-19.5 -9.5t-22.5 -9.5l-115 -44z" />
    <glyph glyph-name="Acircumflex" unicode="&#xc2;" horiz-adv-x="780" 
d="M242 252l-36 -102q-19 -57 -19 -81q0 -39 46 -44v-25h-220v25q16 3 29.5 13t21.5 18.5t18 27t13 26t12 29.5l157 415q17 41 17 54q0 22 -22 25v25h292v-25q-23 -3 -23 -25q0 -9 156 -470q1 -2 7.5 -21.5t9 -26t10.5 -22t14.5 -22t17.5 -13.5t24 -8v-25h-345v25
q24 2 39.5 17.5t15.5 40.5q0 34 -25.5 68.5t-58.5 56.5q-70 48 -151 44zM412 288l-76 237l-63 -188q67 1 139 -49zM386 873l169 -97l-20 -44l-149 44l-148 -44l-22 44z" />
    <glyph glyph-name="Atilde" unicode="&#xc3;" horiz-adv-x="780" 
d="M242 252l-36 -102q-19 -57 -19 -81q0 -39 46 -44v-25h-220v25q16 3 29.5 13t21.5 18.5t18 27t13 26t12 29.5l157 415q17 41 17 54q0 22 -22 25v25h292v-25q-23 -3 -23 -25q0 -9 156 -470q1 -2 7.5 -21.5t9 -26t10.5 -22t14.5 -22t17.5 -13.5t24 -8v-25h-345v25
q24 2 39.5 17.5t15.5 40.5q0 34 -25.5 68.5t-58.5 56.5q-70 48 -151 44zM412 288l-76 237l-63 -188q67 1 139 -49zM518 848l35 -20q-18 -38 -50 -65.5t-69 -27.5q-30 0 -78 26q-38 19 -50 19q-24 0 -48 -33l-32 19q42 97 119 97q23 0 71 -26q40 -23 53 -23q22 0 49 34z" />
    <glyph glyph-name="Adieresis" unicode="&#xc4;" horiz-adv-x="780" 
d="M242 252l-36 -102q-19 -57 -19 -81q0 -39 46 -44v-25h-220v25q16 3 29.5 13t21.5 18.5t18 27t13 26t12 29.5l157 415q17 41 17 54q0 22 -22 25v25h292v-25q-23 -3 -23 -25q0 -9 156 -470q1 -2 7.5 -21.5t9 -26t10.5 -22t14.5 -22t17.5 -13.5t24 -8v-25h-345v25
q24 2 39.5 17.5t15.5 40.5q0 34 -25.5 68.5t-58.5 56.5q-70 48 -151 44zM412 288l-76 237l-63 -188q67 1 139 -49zM216 808q0 32 22 54t54 22t54 -22t22 -54t-22 -54t-54 -22t-54 22t-22 54zM404 808q0 32 22 54t54 22t54 -22t22 -54t-22 -54t-54 -22t-54 22t-22 54z" />
    <glyph glyph-name="Aring" unicode="&#xc5;" horiz-adv-x="780" 
d="M242 252l-36 -102q-19 -57 -19 -81q0 -39 46 -44v-25h-220v25q16 3 29.5 13t21.5 18.5t18 27t13 26t12 29.5l157 415q17 41 17 54q0 22 -22 25v25h292v-25q-23 -3 -23 -25q0 -9 156 -470q1 -2 7.5 -21.5t9 -26t10.5 -22t14.5 -22t17.5 -13.5t24 -8v-25h-345v25
q24 2 39.5 17.5t15.5 40.5q0 34 -25.5 68.5t-58.5 56.5q-70 48 -151 44zM412 288l-76 237l-63 -188q67 1 139 -49zM401 696q-43 0 -74 31t-31 74q0 44 30.5 75t74.5 31t74.5 -31t30.5 -75q0 -43 -31 -74t-74 -31zM400 759q18 0 30.5 12t12.5 30t-12.5 30.5t-30.5 12.5
q-17 0 -29 -13t-12 -30t12 -29.5t29 -12.5z" />
    <glyph glyph-name="AE" unicode="&#xc6;" horiz-adv-x="1040" 
d="M705 371v-194q0 -66 15.5 -88.5t79.5 -22.5q176 0 264 185l21 -7l-84 -260q-9 11 -30 15q-6 1 -33 1h-493v25q9 1 16 4t12.5 5.5t10 8.5t7 9t4.5 11.5t3 11.5t1.5 13.5t0.5 13v14.5v14v206q-125 -45 -182 -88q-45 -34 -81.5 -83.5t-36.5 -95.5q0 -24 12 -33t37 -11v-25
h-236v25q40 9 82 63l289 435q40 63 40 81q0 25 -34 29v25h538q33 0 53 16l52 -232l-21 -5q-22 69 -81.5 112t-132.5 43q-51 0 -75 -19q-18 -13 -18 -61v-75l63 4q28 1 43 3.5t29.5 10.5t20 24.5t6.5 44.5l19 2l45 -254l-17 -2q-44 108 -148 108q-26 0 -61 -7zM499 398v136
q0 25 -2 25q-1 0 -14 -20l-137 -206q76 42 153 65z" />
    <glyph glyph-name="Ccedilla" unicode="&#xc7;" horiz-adv-x="720" 
d="M719 197l-79 -219q-8 11 -18 14q-7 2 -27 2q-28 0 -74 -6q-48 -4 -72 -4q-26 0 -39 1l-57 -28l2 -7q30 10 46 10q34 0 57.5 -19.5t23.5 -52.5q0 -52 -42 -79.5t-101 -36.5q-46 -5 -59 -19l-34 78q19 -10 47 -10q30 0 57.5 18t27.5 46q0 14 -12 22.5t-27 8.5
q-41 0 -81 -42l5 93q6 -6 12 -6q11 0 35 11l41 20q-143 24 -234 114.5t-91 237.5q0 155 105 242.5t263 87.5q54 0 144 -15q24 -4 37 -4q34 0 50 27l57 -284l-21 -6q-29 83 -88 140t-139 57q-89 0 -138.5 -66.5t-49.5 -158.5q0 -115 59 -196q33 -46 84.5 -72.5t107.5 -26.5
q67 0 120.5 36.5t78.5 99.5z" />
    <glyph glyph-name="Egrave" unicode="&#xc8;" 
d="M653 244l-85 -260q-11 12 -28 14q-10 2 -32 2h-496v25q30 -1 42.5 22.5t12.5 77.5v408q0 54 -12.5 77.5t-42.5 22.5v25h454q1 0 15.5 -0.5t20 0t17 2t19 5t12.5 9.5l51 -230l-22 -7q-21 72 -80 113.5t-135 41.5q-27 0 -45 -5t-27.5 -10.5t-14 -22t-5 -27.5t-0.5 -39v-13
v-32h32q70 0 90 7q42 16 41 74l20 3l44 -254l-20 -2q-18 46 -49 74q-7 7 -15 12t-14.5 8.5t-16.5 5.5t-15 3.5t-17.5 2t-16 0.5h-18.5h-18h-27v-217q0 -53 19.5 -73.5t77.5 -20.5q173 0 263 186zM437 739l-27 -33l-114 44q-21 8 -29 11.5t-23.5 13t-21.5 22t-6 28.5
q0 29 20.5 52t49.5 23q35 0 72 -54z" />
    <glyph glyph-name="Eacute" unicode="&#xc9;" 
d="M653 244l-85 -260q-11 12 -28 14q-10 2 -32 2h-496v25q30 -1 42.5 22.5t12.5 77.5v408q0 54 -12.5 77.5t-42.5 22.5v25h454q1 0 15.5 -0.5t20 0t17 2t19 5t12.5 9.5l51 -230l-22 -7q-21 72 -80 113.5t-135 41.5q-27 0 -45 -5t-27.5 -10.5t-14 -22t-5 -27.5t-0.5 -39v-13
v-32h32q70 0 90 7q42 16 41 74l20 3l44 -254l-20 -2q-18 46 -49 74q-7 7 -15 12t-14.5 8.5t-16.5 5.5t-15 3.5t-17.5 2t-16 0.5h-18.5h-18h-27v-217q0 -53 19.5 -73.5t77.5 -20.5q173 0 263 186zM246 739l78 107q12 17 20 26t22.5 18.5t30.5 9.5q29 0 49.5 -23t20.5 -52
q0 -13 -6 -24.5t-11 -17.5t-21 -14t-19.5 -9.5t-22.5 -9.5l-115 -44z" />
    <glyph glyph-name="Ecircumflex" unicode="&#xca;" 
d="M653 244l-85 -260q-11 12 -28 14q-10 2 -32 2h-496v25q30 -1 42.5 22.5t12.5 77.5v408q0 54 -12.5 77.5t-42.5 22.5v25h454q1 0 15.5 -0.5t20 0t17 2t19 5t12.5 9.5l51 -230l-22 -7q-21 72 -80 113.5t-135 41.5q-27 0 -45 -5t-27.5 -10.5t-14 -22t-5 -27.5t-0.5 -39v-13
v-32h32q70 0 90 7q42 16 41 74l20 3l44 -254l-20 -2q-18 46 -49 74q-7 7 -15 12t-14.5 8.5t-16.5 5.5t-15 3.5t-17.5 2t-16 0.5h-18.5h-18h-27v-217q0 -53 19.5 -73.5t77.5 -20.5q173 0 263 186zM326 873l169 -97l-20 -44l-149 44l-148 -44l-22 44z" />
    <glyph glyph-name="Edieresis" unicode="&#xcb;" 
d="M653 244l-85 -260q-11 12 -28 14q-10 2 -32 2h-496v25q30 -1 42.5 22.5t12.5 77.5v408q0 54 -12.5 77.5t-42.5 22.5v25h454q1 0 15.5 -0.5t20 0t17 2t19 5t12.5 9.5l51 -230l-22 -7q-21 72 -80 113.5t-135 41.5q-27 0 -45 -5t-27.5 -10.5t-14 -22t-5 -27.5t-0.5 -39v-13
v-32h32q70 0 90 7q42 16 41 74l20 3l44 -254l-20 -2q-18 46 -49 74q-7 7 -15 12t-14.5 8.5t-16.5 5.5t-15 3.5t-17.5 2t-16 0.5h-18.5h-18h-27v-217q0 -53 19.5 -73.5t77.5 -20.5q173 0 263 186zM156 808q0 32 22 54t54 22t54 -22t22 -54t-22 -54t-54 -22t-54 22t-22 54z
M344 808q0 32 22 54t54 22t54 -22t22 -54t-22 -54t-54 -22t-54 22t-22 54z" />
    <glyph glyph-name="Igrave" unicode="&#xcc;" horiz-adv-x="340" 
d="M273 533v-408q0 -54 12.5 -77.5t42.5 -22.5v-25h-315v25q30 -1 42.5 22.5t12.5 77.5v408q0 54 -12.5 77.5t-42.5 22.5v25h315v-25q-30 1 -42.5 -22.5t-12.5 -77.5zM277 739l-27 -33l-114 44q-21 8 -29 11.5t-23.5 13t-21.5 22t-6 28.5q0 29 20.5 52t49.5 23q35 0 72 -54z
" />
    <glyph glyph-name="Iacute" unicode="&#xcd;" horiz-adv-x="340" 
d="M273 533v-408q0 -54 12.5 -77.5t42.5 -22.5v-25h-315v25q30 -1 42.5 22.5t12.5 77.5v408q0 54 -12.5 77.5t-42.5 22.5v25h315v-25q-30 1 -42.5 -22.5t-12.5 -77.5zM71 739l78 107q12 17 20 26t22.5 18.5t30.5 9.5q29 0 49.5 -23t20.5 -52q0 -13 -6 -24.5t-11 -17.5
t-21 -14t-19.5 -9.5t-22.5 -9.5l-115 -44z" />
    <glyph glyph-name="Icircumflex" unicode="&#xce;" horiz-adv-x="340" 
d="M273 533v-408q0 -54 12.5 -77.5t42.5 -22.5v-25h-315v25q30 -1 42.5 22.5t12.5 77.5v408q0 54 -12.5 77.5t-42.5 22.5v25h315v-25q-30 1 -42.5 -22.5t-12.5 -77.5zM166 873l169 -97l-20 -44l-149 44l-148 -44l-22 44z" />
    <glyph glyph-name="Idieresis" unicode="&#xcf;" horiz-adv-x="340" 
d="M273 533v-408q0 -54 12.5 -77.5t42.5 -22.5v-25h-315v25q30 -1 42.5 22.5t12.5 77.5v408q0 54 -12.5 77.5t-42.5 22.5v25h315v-25q-30 1 -42.5 -22.5t-12.5 -77.5zM-4 808q0 32 22 54t54 22t54 -22t22 -54t-22 -54t-54 -22t-54 22t-22 54zM184 808q0 32 22 54t54 22
t54 -22t22 -54t-22 -54t-54 -22t-54 22t-22 54z" />
    <glyph glyph-name="Eth" unicode="&#xd0;" horiz-adv-x="780" 
d="M73 379h-53v66h53v95q0 47 -9 66.5t-45 26.5v25h330q105 0 169.5 -22t113.5 -63q56 -47 87 -116.5t31 -147.5q0 -66 -23 -127.5t-64 -95.5q-52 -44 -112.5 -65t-148.5 -21h-383v25q36 7 45 26t9 67v261zM415 379h-135v-214q0 -26 1.5 -38.5t7.5 -29t21 -23t41 -6.5
q78 0 130.5 65.5t52.5 174.5q0 72 -23.5 136.5t-69.5 105.5t-104 41q-20 0 -32.5 -6.5t-17.5 -20t-6 -23t-1 -26.5v-70h135v-66z" />
    <glyph glyph-name="Ntilde" unicode="&#xd1;" 
d="M598 533v-407q0 -54 12.5 -77.5t42.5 -22.5v-25h-201v24q51 8 51 57q0 22 -9.5 44.5t-19.5 35.5t-30 35l-297 342v-414q0 -54 12 -77.5t42 -22.5v-25h-194v25q30 -1 42.5 22.5t12.5 77.5v408q0 54 -12.5 77.5t-42.5 22.5v25h382v-25q-26 -7 -26 -27q0 -18 40 -64
l110 -135v126q0 52 -15 76.5t-46 23.5v25h201v-25q-30 1 -42.5 -22.5t-12.5 -77.5zM458 848l35 -20q-18 -38 -50 -65.5t-69 -27.5q-30 0 -78 26q-38 19 -50 19q-24 0 -48 -33l-32 19q42 97 119 97q23 0 71 -26q40 -23 53 -23q22 0 49 34z" />
    <glyph glyph-name="Ograve" unicode="&#xd2;" horiz-adv-x="780" 
d="M394 -16q-169 0 -265 88q-105 96 -105 259q0 157 105 250t265 93q165 0 258 -86q53 -48 79 -118t26 -146q0 -70 -25 -136t-74 -111t-120.5 -69t-143.5 -24zM406 69q39 0 68 24.5t43 62.5q20 50 20 132q0 113 -28 187q-19 47 -54 80.5t-80 33.5q-69 0 -108 -85
q-23 -52 -23 -136q0 -110 31 -187q19 -47 53 -79.5t78 -32.5zM497 739l-27 -33l-114 44q-21 8 -29 11.5t-23.5 13t-21.5 22t-6 28.5q0 29 20.5 52t49.5 23q35 0 72 -54z" />
    <glyph glyph-name="Oacute" unicode="&#xd3;" horiz-adv-x="780" 
d="M394 -16q-169 0 -265 88q-105 96 -105 259q0 157 105 250t265 93q165 0 258 -86q53 -48 79 -118t26 -146q0 -70 -25 -136t-74 -111t-120.5 -69t-143.5 -24zM406 69q39 0 68 24.5t43 62.5q20 50 20 132q0 113 -28 187q-19 47 -54 80.5t-80 33.5q-69 0 -108 -85
q-23 -52 -23 -136q0 -110 31 -187q19 -47 53 -79.5t78 -32.5zM306 739l78 107q12 17 20 26t22.5 18.5t30.5 9.5q29 0 49.5 -23t20.5 -52q0 -13 -6 -24.5t-11 -17.5t-21 -14t-19.5 -9.5t-22.5 -9.5l-115 -44z" />
    <glyph glyph-name="Ocircumflex" unicode="&#xd4;" horiz-adv-x="780" 
d="M394 -16q-169 0 -265 88q-105 96 -105 259q0 157 105 250t265 93q165 0 258 -86q53 -48 79 -118t26 -146q0 -70 -25 -136t-74 -111t-120.5 -69t-143.5 -24zM406 69q39 0 68 24.5t43 62.5q20 50 20 132q0 113 -28 187q-19 47 -54 80.5t-80 33.5q-69 0 -108 -85
q-23 -52 -23 -136q0 -110 31 -187q19 -47 53 -79.5t78 -32.5zM386 873l169 -97l-20 -44l-149 44l-148 -44l-22 44z" />
    <glyph glyph-name="Otilde" unicode="&#xd5;" horiz-adv-x="780" 
d="M394 -16q-169 0 -265 88q-105 96 -105 259q0 157 105 250t265 93q165 0 258 -86q53 -48 79 -118t26 -146q0 -70 -25 -136t-74 -111t-120.5 -69t-143.5 -24zM406 69q39 0 68 24.5t43 62.5q20 50 20 132q0 113 -28 187q-19 47 -54 80.5t-80 33.5q-69 0 -108 -85
q-23 -52 -23 -136q0 -110 31 -187q19 -47 53 -79.5t78 -32.5zM518 848l35 -20q-18 -38 -50 -65.5t-69 -27.5q-30 0 -78 26q-38 19 -50 19q-24 0 -48 -33l-32 19q42 97 119 97q23 0 71 -26q40 -23 53 -23q22 0 49 34z" />
    <glyph glyph-name="Odieresis" unicode="&#xd6;" horiz-adv-x="780" 
d="M394 -16q-169 0 -265 88q-105 96 -105 259q0 157 105 250t265 93q165 0 258 -86q53 -48 79 -118t26 -146q0 -70 -25 -136t-74 -111t-120.5 -69t-143.5 -24zM406 69q39 0 68 24.5t43 62.5q20 50 20 132q0 113 -28 187q-19 47 -54 80.5t-80 33.5q-69 0 -108 -85
q-23 -52 -23 -136q0 -110 31 -187q19 -47 53 -79.5t78 -32.5zM216 808q0 32 22 54t54 22t54 -22t22 -54t-22 -54t-54 -22t-54 22t-22 54zM404 808q0 32 22 54t54 22t54 -22t22 -54t-22 -54t-54 -22t-54 22t-22 54z" />
    <glyph glyph-name="multiply" unicode="&#xd7;" horiz-adv-x="600" 
d="M359 330l119 -119q14 -14 30 -12l10 -10l-80 -79l-9 9q5 20 -10 33l-119 120l-119 -120q-11 -11 -11 -22q0 -5 2 -11l-10 -9l-79 79l9 10q16 -3 31 12l119 119l-119 119q-13 13 -34 10l-9 9l80 80l9 -10q0 -18 12 -31l119 -119l119 119q13 13 13 31l9 10l80 -80l-10 -9
q-20 5 -33 -10z" />
    <glyph glyph-name="Oslash" unicode="&#xd8;" horiz-adv-x="780" 
d="M579 693l-24 -53q97 -37 152.5 -123t55.5 -188q0 -151 -106 -252q-104 -93 -270 -93q-71 0 -121 18l-15 -40q-5 -12 -5 -20q0 -17 20 -22v-16h-160v16q33 5 57 59l26 56q-83 42 -128 123.5t-45 174.5q0 151 105 249q108 92 267 92q42 0 83 -9l11 24q18 42 18 51
q0 16 -16 20v16h152v-16q-14 -2 -26.5 -15.5t-17 -22.5t-13.5 -29zM259 197l174 384q-26 13 -52 13q-44 0 -74.5 -23.5t-45 -63.5t-20 -77.5t-5.5 -79.5q0 -87 23 -153zM499 515l-188 -416q37 -35 85 -35q41 0 73.5 28.5t49.5 70.5q24 61 24 146q0 124 -44 206z" />
    <glyph glyph-name="Ugrave" unicode="&#xd9;" horiz-adv-x="680" 
d="M17 633v25h324v-25q-27 -3 -41.5 -17t-18 -29.5t-5.5 -47.5l-18 -287q-6 -85 18 -125q36 -59 119 -59q42 0 78.5 19t49.5 51q22 53 16 159l-13 242q-1 24 -3.5 37t-8.5 27.5t-19.5 21t-34.5 8.5v25h203v-25q-40 -4 -49 -25.5t-6 -68.5l15 -293q7 -131 -66 -193
q-82 -70 -221 -70q-145 0 -212 53q-47 37 -61 82t-10 123l17 298q1 27 0 46.5t-13.5 31.5t-39.5 16zM447 739l-27 -33l-114 44q-21 8 -29 11.5t-23.5 13t-21.5 22t-6 28.5q0 29 20.5 52t49.5 23q35 0 72 -54z" />
    <glyph glyph-name="Uacute" unicode="&#xda;" horiz-adv-x="680" 
d="M17 633v25h324v-25q-27 -3 -41.5 -17t-18 -29.5t-5.5 -47.5l-18 -287q-6 -85 18 -125q36 -59 119 -59q42 0 78.5 19t49.5 51q22 53 16 159l-13 242q-1 24 -3.5 37t-8.5 27.5t-19.5 21t-34.5 8.5v25h203v-25q-40 -4 -49 -25.5t-6 -68.5l15 -293q7 -131 -66 -193
q-82 -70 -221 -70q-145 0 -212 53q-47 37 -61 82t-10 123l17 298q1 27 0 46.5t-13.5 31.5t-39.5 16zM296 739l78 107q12 17 20 26t22.5 18.5t30.5 9.5q29 0 49.5 -23t20.5 -52q0 -13 -6 -24.5t-11 -17.5t-21 -14t-19.5 -9.5t-22.5 -9.5l-115 -44z" />
    <glyph glyph-name="Ucircumflex" unicode="&#xdb;" horiz-adv-x="680" 
d="M17 633v25h324v-25q-27 -3 -41.5 -17t-18 -29.5t-5.5 -47.5l-18 -287q-6 -85 18 -125q36 -59 119 -59q42 0 78.5 19t49.5 51q22 53 16 159l-13 242q-1 24 -3.5 37t-8.5 27.5t-19.5 21t-34.5 8.5v25h203v-25q-40 -4 -49 -25.5t-6 -68.5l15 -293q7 -131 -66 -193
q-82 -70 -221 -70q-145 0 -212 53q-47 37 -61 82t-10 123l17 298q1 27 0 46.5t-13.5 31.5t-39.5 16zM356 873l169 -97l-20 -44l-149 44l-148 -44l-22 44z" />
    <glyph glyph-name="Udieresis" unicode="&#xdc;" horiz-adv-x="680" 
d="M17 633v25h324v-25q-27 -3 -41.5 -17t-18 -29.5t-5.5 -47.5l-18 -287q-6 -85 18 -125q36 -59 119 -59q42 0 78.5 19t49.5 51q22 53 16 159l-13 242q-1 24 -3.5 37t-8.5 27.5t-19.5 21t-34.5 8.5v25h203v-25q-40 -4 -49 -25.5t-6 -68.5l15 -293q7 -131 -66 -193
q-82 -70 -221 -70q-145 0 -212 53q-47 37 -61 82t-10 123l17 298q1 27 0 46.5t-13.5 31.5t-39.5 16zM186 808q0 32 22 54t54 22t54 -22t22 -54t-22 -54t-54 -22t-54 22t-22 54zM374 808q0 32 22 54t54 22t54 -22t22 -54t-22 -54t-54 -22t-54 22t-22 54z" />
    <glyph glyph-name="Yacute" unicode="&#xdd;" horiz-adv-x="700" 
d="M449 300v-169q1 -59 16 -83t54 -23v-25h-344v25q39 -1 54 23t15 83v169l-155 250q-1 2 -8.5 14.5t-10.5 16.5t-10 14t-12 14t-12.5 10.5t-15.5 9.5t-17 4v25h363v-25q-39 -5 -39 -38q0 -15 24 -58l77 -138l45 72q66 107 66 132q0 28 -38 30v25h197v-25q-39 -10 -73 -56
l-79 -122zM286 739l78 107q12 17 20 26t22.5 18.5t30.5 9.5q29 0 49.5 -23t20.5 -52q0 -13 -6 -24.5t-11 -17.5t-21 -14t-19.5 -9.5t-22.5 -9.5l-115 -44z" />
    <glyph glyph-name="Thorn" unicode="&#xde;" 
d="M272 163v-38q0 -54 11.5 -77t41.5 -23v-25h-311v25q30 0 41.5 23t11.5 77v408q0 54 -11.5 77t-41.5 23v25h311v-25q-30 0 -41.5 -25t-11.5 -89h161q108 0 145 -12q35 -11 56.5 -37t21.5 -63q0 -43 -28 -80t-66 -60.5t-95 -45.5t-95 -32.5t-87 -22.5q-4 -1 -7 -1.5
t-6 -1.5zM272 369v-133q66 15 119 49t53 89q0 40 -29 59.5t-72 19.5q-47 0 -59 -17.5t-12 -66.5z" />
    <glyph glyph-name="germandbls" unicode="&#xdf;" horiz-adv-x="680" 
d="M273 432v-298q0 -126 -45 -184q-60 -77 -179 -77q-58 0 -123 21l9 95h18q-1 -18 11.5 -32t30.5 -14q24 0 45 16t31 39q5 11 8 28t3.5 27t2 35.5t1.5 26.5v226h-10q-44 0 -67 -15l31 91q8 -10 36 -10h10v19q0 142 58 201q71 74 211 74q51 0 93 -10.5t75 -41.5t33 -81
t-38.5 -90t-91.5 -48l8 -2q94 -17 140 -53q79 -59 79 -162q0 -100 -71 -163t-174 -63q-57 2 -103 17l33 125l18 -6q0 -2 -0.5 -5.5t-0.5 -5.5q0 -21 16.5 -36.5t38.5 -15.5q41 0 64 33t23 74q0 50 -45 101q-25 27 -97 61q-23 11 -32 17t-17 19.5t-8 34.5q0 24 9.5 38
t31.5 28q25 16 36 24.5t21 26.5t10 42t-13.5 41t-37.5 17t-40.5 -13.5t-24.5 -30t-12 -45.5t-4.5 -45t-0.5 -43v-8z" />
    <glyph glyph-name="agrave" unicode="&#xe0;" horiz-adv-x="600" 
d="M357 329v8q2 49 -14 67q-25 26 -76 26q-60 0 -106.5 -32.5t-70.5 -88.5l-20 2l20 179q17 -17 33 -17q14 0 40 6q122 27 184 27q104 0 150 -36q23 -17 34 -46.5t12.5 -49t1.5 -57.5v-182v-14v-15t0.5 -14t1.5 -14.5t3 -12.5t4.5 -12t6.5 -10t9.5 -9t13 -5.5t16.5 -3.5v-25
h-208q-24 23 -35 67q-25 -37 -79 -58.5t-104 -21.5q-60 0 -105 34t-45 92q0 166 333 216zM358 272q-56 -9 -86 -29q-25 -16 -43 -42t-18 -52q0 -25 15 -43.5t39 -18.5q29 0 49.5 19.5t29 51t11.5 59t3 55.5zM407 574l-27 -33l-114 44q-21 8 -29 11.5t-23.5 13t-21.5 22
t-6 28.5q0 29 20.5 52t49.5 23q35 0 72 -54z" />
    <glyph glyph-name="aacute" unicode="&#xe1;" horiz-adv-x="600" 
d="M357 329v8q2 49 -14 67q-25 26 -76 26q-60 0 -106.5 -32.5t-70.5 -88.5l-20 2l20 179q17 -17 33 -17q14 0 40 6q122 27 184 27q104 0 150 -36q23 -17 34 -46.5t12.5 -49t1.5 -57.5v-182v-14v-15t0.5 -14t1.5 -14.5t3 -12.5t4.5 -12t6.5 -10t9.5 -9t13 -5.5t16.5 -3.5v-25
h-208q-24 23 -35 67q-25 -37 -79 -58.5t-104 -21.5q-60 0 -105 34t-45 92q0 166 333 216zM358 272q-56 -9 -86 -29q-25 -16 -43 -42t-18 -52q0 -25 15 -43.5t39 -18.5q29 0 49.5 19.5t29 51t11.5 59t3 55.5zM216 574l78 107q12 17 20 26t22.5 18.5t30.5 9.5q29 0 49.5 -23
t20.5 -52q0 -13 -6 -24.5t-11 -17.5t-21 -14t-19.5 -9.5t-22.5 -9.5l-115 -44z" />
    <glyph glyph-name="acircumflex" unicode="&#xe2;" horiz-adv-x="600" 
d="M357 329v8q2 49 -14 67q-25 26 -76 26q-60 0 -106.5 -32.5t-70.5 -88.5l-20 2l20 179q17 -17 33 -17q14 0 40 6q122 27 184 27q104 0 150 -36q23 -17 34 -46.5t12.5 -49t1.5 -57.5v-182v-14v-15t0.5 -14t1.5 -14.5t3 -12.5t4.5 -12t6.5 -10t9.5 -9t13 -5.5t16.5 -3.5v-25
h-208q-24 23 -35 67q-25 -37 -79 -58.5t-104 -21.5q-60 0 -105 34t-45 92q0 166 333 216zM358 272q-56 -9 -86 -29q-25 -16 -43 -42t-18 -52q0 -25 15 -43.5t39 -18.5q29 0 49.5 19.5t29 51t11.5 59t3 55.5zM296 708l169 -97l-20 -44l-149 44l-148 -44l-22 44z" />
    <glyph glyph-name="atilde" unicode="&#xe3;" horiz-adv-x="600" 
d="M357 329v8q2 49 -14 67q-25 26 -76 26q-60 0 -106.5 -32.5t-70.5 -88.5l-20 2l20 179q17 -17 33 -17q14 0 40 6q122 27 184 27q104 0 150 -36q23 -17 34 -46.5t12.5 -49t1.5 -57.5v-182v-14v-15t0.5 -14t1.5 -14.5t3 -12.5t4.5 -12t6.5 -10t9.5 -9t13 -5.5t16.5 -3.5v-25
h-208q-24 23 -35 67q-25 -37 -79 -58.5t-104 -21.5q-60 0 -105 34t-45 92q0 166 333 216zM358 272q-56 -9 -86 -29q-25 -16 -43 -42t-18 -52q0 -25 15 -43.5t39 -18.5q29 0 49.5 19.5t29 51t11.5 59t3 55.5zM428 683l35 -20q-18 -38 -50 -65.5t-69 -27.5q-30 0 -78 26
q-38 19 -50 19q-24 0 -48 -33l-32 19q42 97 119 97q23 0 71 -26q40 -23 53 -23q22 0 49 34z" />
    <glyph glyph-name="adieresis" unicode="&#xe4;" horiz-adv-x="600" 
d="M357 329v8q2 49 -14 67q-25 26 -76 26q-60 0 -106.5 -32.5t-70.5 -88.5l-20 2l20 179q17 -17 33 -17q14 0 40 6q122 27 184 27q104 0 150 -36q23 -17 34 -46.5t12.5 -49t1.5 -57.5v-182v-14v-15t0.5 -14t1.5 -14.5t3 -12.5t4.5 -12t6.5 -10t9.5 -9t13 -5.5t16.5 -3.5v-25
h-208q-24 23 -35 67q-25 -37 -79 -58.5t-104 -21.5q-60 0 -105 34t-45 92q0 166 333 216zM358 272q-56 -9 -86 -29q-25 -16 -43 -42t-18 -52q0 -25 15 -43.5t39 -18.5q29 0 49.5 19.5t29 51t11.5 59t3 55.5zM126 643q0 31 22 53.5t54 22.5t54 -22.5t22 -53.5t-22 -53.5
t-54 -22.5t-54 22.5t-22 53.5zM314 643q0 31 22 53.5t54 22.5t54 -22.5t22 -53.5t-22 -53.5t-54 -22.5t-54 22.5t-22 53.5z" />
    <glyph glyph-name="aring" unicode="&#xe5;" horiz-adv-x="600" 
d="M357 329v8q2 49 -14 67q-25 26 -76 26q-60 0 -106.5 -32.5t-70.5 -88.5l-20 2l20 179q17 -17 33 -17q14 0 40 6q122 27 184 27q104 0 150 -36q23 -17 34 -46.5t12.5 -49t1.5 -57.5v-182v-14v-15t0.5 -14t1.5 -14.5t3 -12.5t4.5 -12t6.5 -10t9.5 -9t13 -5.5t16.5 -3.5v-25
h-208q-24 23 -35 67q-25 -37 -79 -58.5t-104 -21.5q-60 0 -105 34t-45 92q0 166 333 216zM315 609q18 0 30.5 12t12.5 30t-12.5 30.5t-30.5 12.5q-17 0 -29 -13t-12 -30t12 -29.5t29 -12.5zM358 272q-56 -9 -86 -29q-25 -16 -43 -42t-18 -52q0 -25 15 -43.5t39 -18.5
q29 0 49.5 19.5t29 51t11.5 59t3 55.5zM316 546q-44 0 -74.5 31t-30.5 74q0 44 30.5 75t74.5 31t74.5 -31t30.5 -75q0 -43 -30.5 -74t-74.5 -31z" />
    <glyph glyph-name="ae" unicode="&#xe6;" horiz-adv-x="920" 
d="M897 301l-361 -69q26 -162 155 -162q56 0 104 32.5t68 84.5l21 -9l-63 -191q-7 9 -17 12q-6 2 -16 2q-22 0 -68 -7q-61 -7 -86 -7q-74 0 -143 27.5t-109 81.5q-36 -50 -92.5 -79.5t-117.5 -29.5q-62 0 -105 35.5t-43 96.5q0 37 15.5 67.5t45 52t60.5 37t73.5 26.5
t71.5 17t66 12v28q0 75 -92 75q-57 0 -103 -33.5t-68 -87.5h-21l21 179q15 -17 35 -17q7 0 52 9q98 22 165 22q97 0 139 -47q61 47 157 47q103 0 175 -53t81 -152zM532 292l165 31l1 17q0 35 -21 62.5t-55 27.5q-49 0 -70.5 -42t-19.5 -96zM356 255v18q-54 -3 -99.5 -38.5
t-45.5 -86.5q0 -23 14 -41.5t37 -18.5q28 0 47.5 17t29 45t13.5 53.5t4 51.5z" />
    <glyph glyph-name="ccedilla" unicode="&#xe7;" horiz-adv-x="580" 
d="M561 161l-71 -176q-15 11 -42 11q-8 0 -48 -5l-57 -4l-60 -30l2 -7q30 10 46 10q34 0 57.5 -19.5t23.5 -52.5q0 -52 -42 -79.5t-101 -36.5q-46 -5 -59 -19l-34 78q19 -10 47 -10q30 0 57.5 18t27.5 46q0 14 -12 22.5t-27 8.5q-41 0 -81 -42l5 93q6 -6 12 -6q11 0 35 11
l40 20q-109 16 -179.5 86t-70.5 183q0 118 80 181.5t201 63.5q25 0 104 -9q27 -3 28 -3q26 0 36 17l45 -199l-21 -5q-12 49 -49.5 86.5t-85.5 37.5q-51 0 -92 -41q-46 -46 -46 -125q0 -74 43.5 -134.5t114.5 -60.5q48 0 90 28t64 72z" />
    <glyph glyph-name="egrave" unicode="&#xe8;" horiz-adv-x="600" 
d="M591 306l-360 -73q8 -70 47 -116.5t105 -46.5q58 0 105 33t70 87l21 -8l-62 -192q-20 13 -36 13q-9 0 -60 -8t-85 -8q-128 0 -208 59q-103 75 -103 204q0 121 87 188.5t212 67.5q105 0 177.5 -50.5t89.5 -149.5zM225 294l165 33v17q0 35 -22.5 60t-56.5 25
q-45 0 -66.5 -43t-19.5 -92zM407 574l-27 -33l-114 44q-21 8 -29 11.5t-23.5 13t-21.5 22t-6 28.5q0 29 20.5 52t49.5 23q35 0 72 -54z" />
    <glyph glyph-name="eacute" unicode="&#xe9;" horiz-adv-x="600" 
d="M591 306l-360 -73q8 -70 47 -116.5t105 -46.5q58 0 105 33t70 87l21 -8l-62 -192q-20 13 -36 13q-9 0 -60 -8t-85 -8q-128 0 -208 59q-103 75 -103 204q0 121 87 188.5t212 67.5q105 0 177.5 -50.5t89.5 -149.5zM225 294l165 33v17q0 35 -22.5 60t-56.5 25
q-45 0 -66.5 -43t-19.5 -92zM216 574l78 107q12 17 20 26t22.5 18.5t30.5 9.5q29 0 49.5 -23t20.5 -52q0 -13 -6 -24.5t-11 -17.5t-21 -14t-19.5 -9.5t-22.5 -9.5l-115 -44z" />
    <glyph glyph-name="ecircumflex" unicode="&#xea;" horiz-adv-x="600" 
d="M591 306l-360 -73q8 -70 47 -116.5t105 -46.5q58 0 105 33t70 87l21 -8l-62 -192q-20 13 -36 13q-9 0 -60 -8t-85 -8q-128 0 -208 59q-103 75 -103 204q0 121 87 188.5t212 67.5q105 0 177.5 -50.5t89.5 -149.5zM225 294l165 33v17q0 35 -22.5 60t-56.5 25
q-45 0 -66.5 -43t-19.5 -92zM296 708l169 -97l-20 -44l-149 44l-148 -44l-22 44z" />
    <glyph glyph-name="edieresis" unicode="&#xeb;" horiz-adv-x="600" 
d="M591 306l-360 -73q8 -70 47 -116.5t105 -46.5q58 0 105 33t70 87l21 -8l-62 -192q-20 13 -36 13q-9 0 -60 -8t-85 -8q-128 0 -208 59q-103 75 -103 204q0 121 87 188.5t212 67.5q105 0 177.5 -50.5t89.5 -149.5zM225 294l165 33v17q0 35 -22.5 60t-56.5 25
q-45 0 -66.5 -43t-19.5 -92zM156 643q0 31 22 53.5t54 22.5t54 -22.5t22 -53.5t-22 -53.5t-54 -22.5t-54 22.5t-22 53.5zM344 643q0 31 22 53.5t54 22.5t54 -22.5t22 -53.5t-22 -53.5t-54 -22.5t-54 22.5t-22 53.5z" />
    <glyph glyph-name="igrave" unicode="&#xec;" horiz-adv-x="320" 
d="M71 105v277q0 77 -54 80v25l240 14v-396q0 -77 56 -80v-25h-296v25q54 3 54 80zM267 574l-27 -33l-114 44q-21 8 -29 11.5t-23.5 13t-21.5 22t-6 28.5q0 29 20.5 52t49.5 23q35 0 72 -54z" />
    <glyph glyph-name="iacute" unicode="&#xed;" horiz-adv-x="320" 
d="M71 105v277q0 77 -54 80v25l240 14v-396q0 -77 56 -80v-25h-296v25q54 3 54 80zM56 574l78 107q12 17 20 26t22.5 18.5t30.5 9.5q29 0 49.5 -23t20.5 -52q0 -13 -6 -24.5t-11 -17.5t-21 -14t-19.5 -9.5t-22.5 -9.5l-115 -44z" />
    <glyph glyph-name="icircumflex" unicode="&#xee;" horiz-adv-x="320" 
d="M71 105v277q0 77 -54 80v25l240 14v-396q0 -77 56 -80v-25h-296v25q54 3 54 80zM156 708l169 -97l-20 -44l-149 44l-148 -44l-22 44z" />
    <glyph glyph-name="idieresis" unicode="&#xef;" horiz-adv-x="320" 
d="M71 105v277q0 77 -54 80v25l240 14v-396q0 -77 56 -80v-25h-296v25q54 3 54 80zM-14 643q0 31 22 53.5t54 22.5t54 -22.5t22 -53.5t-22 -53.5t-54 -22.5t-54 22.5t-22 53.5zM174 643q0 31 22 53.5t54 22.5t54 -22.5t22 -53.5t-22 -53.5t-54 -22.5t-54 22.5t-22 53.5z" />
    <glyph glyph-name="eth" unicode="&#xf0;" 
d="M232 238q0 -25 5 -52t16 -56.5t34 -48t54 -18.5q21 0 40 14.5t29 33.5q20 37 20 97q0 77 -25 122q-27 50 -77 50q-29 0 -49 -14t-29.5 -37.5t-13.5 -45.5t-4 -45zM242 496l-30 61l95 48q-55 35 -144 41l20 59q125 -10 216 -53l121 61l30 -59l-82 -42q162 -118 162 -347
q0 -137 -84 -207.5t-216 -70.5q-133 0 -215.5 57.5t-82.5 177.5q0 114 75.5 182t184.5 68q69 0 111 -35l2 2q-20 82 -47 117z" />
    <glyph glyph-name="ntilde" unicode="&#xf1;" 
d="M70 106v276q0 77 -54 80v25l213 14q6 -10 11 -23.5t7 -22.5t5.5 -26t4.5 -23q84 100 199 100q77 -3 105.5 -43t28.5 -127v-230q0 -78 55 -81v-25h-299v25q57 3 57 81v192v16t-0.5 19t-2 18t-4.5 18.5t-8 14t-13 11t-19 3.5q-26 0 -48.5 -16t-32.5 -39q-18 -37 -18 -110
v-127q0 -78 60 -81v-25h-301v25q54 3 54 81zM458 683l35 -20q-18 -38 -50 -65.5t-69 -27.5q-30 0 -78 26q-38 19 -50 19q-24 0 -48 -33l-32 19q42 97 119 97q23 0 71 -26q40 -23 53 -23q22 0 49 34z" />
    <glyph glyph-name="ograve" unicode="&#xf2;" 
d="M329 -13q-126 0 -204 52q-46 30 -70 83t-24 113q0 126 89.5 198.5t217.5 72.5q126 0 208.5 -68t82.5 -193q0 -123 -87.5 -190.5t-212.5 -67.5zM340 64q35 0 56.5 34.5t27 68t5.5 64.5q0 32 -4.5 63.5t-15 63.5t-32 52t-50.5 20t-49 -16.5t-29.5 -43.5t-13.5 -52t-4 -52
q0 -29 5 -60.5t16 -65t34 -55t54 -21.5zM437 574l-27 -33l-114 44q-21 8 -29 11.5t-23.5 13t-21.5 22t-6 28.5q0 29 20.5 52t49.5 23q35 0 72 -54z" />
    <glyph glyph-name="oacute" unicode="&#xf3;" 
d="M329 -13q-126 0 -204 52q-46 30 -70 83t-24 113q0 126 89.5 198.5t217.5 72.5q126 0 208.5 -68t82.5 -193q0 -123 -87.5 -190.5t-212.5 -67.5zM340 64q35 0 56.5 34.5t27 68t5.5 64.5q0 32 -4.5 63.5t-15 63.5t-32 52t-50.5 20t-49 -16.5t-29.5 -43.5t-13.5 -52t-4 -52
q0 -29 5 -60.5t16 -65t34 -55t54 -21.5zM246 574l78 107q12 17 20 26t22.5 18.5t30.5 9.5q29 0 49.5 -23t20.5 -52q0 -13 -6 -24.5t-11 -17.5t-21 -14t-19.5 -9.5t-22.5 -9.5l-115 -44z" />
    <glyph glyph-name="ocircumflex" unicode="&#xf4;" 
d="M329 -13q-126 0 -204 52q-46 30 -70 83t-24 113q0 126 89.5 198.5t217.5 72.5q126 0 208.5 -68t82.5 -193q0 -123 -87.5 -190.5t-212.5 -67.5zM340 64q35 0 56.5 34.5t27 68t5.5 64.5q0 32 -4.5 63.5t-15 63.5t-32 52t-50.5 20t-49 -16.5t-29.5 -43.5t-13.5 -52t-4 -52
q0 -29 5 -60.5t16 -65t34 -55t54 -21.5zM326 708l169 -97l-20 -44l-149 44l-148 -44l-22 44z" />
    <glyph glyph-name="otilde" unicode="&#xf5;" 
d="M329 -13q-126 0 -204 52q-46 30 -70 83t-24 113q0 126 89.5 198.5t217.5 72.5q126 0 208.5 -68t82.5 -193q0 -123 -87.5 -190.5t-212.5 -67.5zM340 64q35 0 56.5 34.5t27 68t5.5 64.5q0 32 -4.5 63.5t-15 63.5t-32 52t-50.5 20t-49 -16.5t-29.5 -43.5t-13.5 -52t-4 -52
q0 -29 5 -60.5t16 -65t34 -55t54 -21.5zM458 683l35 -20q-18 -38 -50 -65.5t-69 -27.5q-30 0 -78 26q-38 19 -50 19q-24 0 -48 -33l-32 19q42 97 119 97q23 0 71 -26q40 -23 53 -23q22 0 49 34z" />
    <glyph glyph-name="odieresis" unicode="&#xf6;" 
d="M329 -13q-126 0 -204 52q-46 30 -70 83t-24 113q0 126 89.5 198.5t217.5 72.5q126 0 208.5 -68t82.5 -193q0 -123 -87.5 -190.5t-212.5 -67.5zM340 64q35 0 56.5 34.5t27 68t5.5 64.5q0 32 -4.5 63.5t-15 63.5t-32 52t-50.5 20t-49 -16.5t-29.5 -43.5t-13.5 -52t-4 -52
q0 -29 5 -60.5t16 -65t34 -55t54 -21.5zM156 643q0 31 22 53.5t54 22.5t54 -22.5t22 -53.5t-22 -53.5t-54 -22.5t-54 22.5t-22 53.5zM344 643q0 31 22 53.5t54 22.5t54 -22.5t22 -53.5t-22 -53.5t-54 -22.5t-54 22.5t-22 53.5z" />
    <glyph glyph-name="divide" unicode="&#xf7;" horiz-adv-x="600" 
d="M382 168q0 -36 -24 -57t-58 -21q-29 0 -55.5 18.5t-26.5 55.5q0 34 23.5 54t58.5 20q36 0 59 -20.5t23 -49.5zM382 501q0 -37 -24 -58t-58 -21q-30 0 -56 18.5t-26 55.5q0 34 23.5 54t58.5 20q36 0 59 -20t23 -49zM64 272v112h13q13 -13 31 -13h385q18 0 31 13h13v-112
h-13q-11 17 -31 17h-386q-19 0 -30 -17h-13z" />
    <glyph glyph-name="oslash" unicode="&#xf8;" 
d="M387 500l10 20q1 4 5 12.5t6.5 16t2.5 13.5q0 19 -24 24v14h189v-14q-7 0 -13.5 -2t-12 -6t-10 -6.5t-9.5 -9t-7.5 -9.5t-7.5 -11.5t-6 -10.5t-6 -11l-5 -10l-14 -30q80 -23 126.5 -84t46.5 -140q0 -86 -47.5 -148t-122 -91.5t-165.5 -29.5q-24 0 -72 6l-4 -10
q-13 -36 -13 -39q0 -19 25 -21v-14h-182v14q7 0 14 2.5t13 7.5t9.5 8.5t9 12.5t7 11t6.5 13l6 11l14 28q-74 25 -114 87.5t-40 139.5q0 123 93.5 192.5t230.5 69.5q31 0 61 -6zM217 145l139 291q-14 5 -32 5q-38 0 -64 -19.5t-37.5 -51.5t-16 -61t-4.5 -62q0 -57 15 -102z
M432 376l-150 -314q24 -10 50 -10q36 0 62.5 17.5t39.5 46.5t18.5 58t5.5 60q0 77 -26 142z" />
    <glyph glyph-name="ugrave" unicode="&#xf9;" 
d="M585 501v-396q0 -77 54 -80v-25h-229q-10 29 -12 90q-40 -46 -94.5 -74.5t-111.5 -28.5q-66 0 -101 43q-13 16 -19 38t-6.5 35t-0.5 43v236q0 77 -55 80v25l242 14v-330q0 -43 12.5 -59.5t35.5 -16.5q27 0 47.5 18t31.5 46q19 50 19 149v61q0 46 -12.5 69t-46.5 24v25z
M437 574l-27 -33l-114 44q-21 8 -29 11.5t-23.5 13t-21.5 22t-6 28.5q0 29 20.5 52t49.5 23q35 0 72 -54z" />
    <glyph glyph-name="uacute" unicode="&#xfa;" 
d="M585 501v-396q0 -77 54 -80v-25h-229q-10 29 -12 90q-40 -46 -94.5 -74.5t-111.5 -28.5q-66 0 -101 43q-13 16 -19 38t-6.5 35t-0.5 43v236q0 77 -55 80v25l242 14v-330q0 -43 12.5 -59.5t35.5 -16.5q27 0 47.5 18t31.5 46q19 50 19 149v61q0 46 -12.5 69t-46.5 24v25z
M246 574l78 107q12 17 20 26t22.5 18.5t30.5 9.5q29 0 49.5 -23t20.5 -52q0 -13 -6 -24.5t-11 -17.5t-21 -14t-19.5 -9.5t-22.5 -9.5l-115 -44z" />
    <glyph glyph-name="ucircumflex" unicode="&#xfb;" 
d="M585 501v-396q0 -77 54 -80v-25h-229q-10 29 -12 90q-40 -46 -94.5 -74.5t-111.5 -28.5q-66 0 -101 43q-13 16 -19 38t-6.5 35t-0.5 43v236q0 77 -55 80v25l242 14v-330q0 -43 12.5 -59.5t35.5 -16.5q27 0 47.5 18t31.5 46q19 50 19 149v61q0 46 -12.5 69t-46.5 24v25z
M326 708l169 -97l-20 -44l-149 44l-148 -44l-22 44z" />
    <glyph glyph-name="udieresis" unicode="&#xfc;" 
d="M585 501v-396q0 -77 54 -80v-25h-229q-10 29 -12 90q-40 -46 -94.5 -74.5t-111.5 -28.5q-66 0 -101 43q-13 16 -19 38t-6.5 35t-0.5 43v236q0 77 -55 80v25l242 14v-330q0 -43 12.5 -59.5t35.5 -16.5q27 0 47.5 18t31.5 46q19 50 19 149v61q0 46 -12.5 69t-46.5 24v25z
M156 643q0 31 22 53.5t54 22.5t54 -22.5t22 -53.5t-22 -53.5t-54 -22.5t-54 22.5t-22 53.5zM344 643q0 31 22 53.5t54 22.5t54 -22.5t22 -53.5t-22 -53.5t-54 -22.5t-54 22.5t-22 53.5z" />
    <glyph glyph-name="yacute" unicode="&#xfd;" horiz-adv-x="580" 
d="M347 197l64 169q16 46 16 65q0 39 -43 37v25h203v-25q-11 -1 -21 -5t-17.5 -8.5t-15.5 -15t-13 -16.5t-12 -20.5t-9.5 -19.5t-9 -21t-7.5 -18l-176 -406q-33 -75 -73.5 -113t-111.5 -38q-66 0 -121 42l59 130l21 -8q-3 -12 -3 -23q0 -22 18.5 -37t39.5 -15q40 0 67 36
t27 77q0 46 -39 128l-121 266q-1 2 -6.5 14t-7 15.5t-7 14t-9 14.5t-10 11t-12.5 9.5t-14.5 4.5t-17.5 2v25h325v-25q-49 2 -49 -31q0 -16 15 -51zM226 574l78 107q12 17 20 26t22.5 18.5t30.5 9.5q29 0 49.5 -23t20.5 -52q0 -13 -6 -24.5t-11 -17.5t-21 -14t-19.5 -9.5
t-22.5 -9.5l-115 -44z" />
    <glyph glyph-name="thorn" unicode="&#xfe;" horiz-adv-x="680" 
d="M71 -112v668q0 77 -54 80v25l241 13v-181h80q140 0 211 -57q45 -38 71 -92t26 -112q0 -119 -89 -187q-67 -55 -212 -55l-87 6v-108q0 -38 16.5 -58t45.5 -22v-25h-313v25q29 2 46.5 22t17.5 58zM258 428v-295q0 -42 8 -54q14 -19 49 -19q66 0 98.5 54t32.5 124
q0 79 -44 134.5t-121 55.5h-23z" />
    <glyph glyph-name="ydieresis" unicode="&#xff;" horiz-adv-x="580" 
d="M347 197l64 169q16 46 16 65q0 39 -43 37v25h203v-25q-11 -1 -21 -5t-17.5 -8.5t-15.5 -15t-13 -16.5t-12 -20.5t-9.5 -19.5t-9 -21t-7.5 -18l-176 -406q-33 -75 -73.5 -113t-111.5 -38q-66 0 -121 42l59 130l21 -8q-3 -12 -3 -23q0 -22 18.5 -37t39.5 -15q40 0 67 36
t27 77q0 46 -39 128l-121 266q-1 2 -6.5 14t-7 15.5t-7 14t-9 14.5t-10 11t-12.5 9.5t-14.5 4.5t-17.5 2v25h325v-25q-49 2 -49 -31q0 -16 15 -51zM146 643q0 31 22 53.5t54 22.5t54 -22.5t22 -53.5t-22 -53.5t-54 -22.5t-54 22.5t-22 53.5zM334 643q0 31 22 53.5t54 22.5
t54 -22.5t22 -53.5t-22 -53.5t-54 -22.5t-54 22.5t-22 53.5z" />
    <glyph glyph-name="dotlessi" unicode="&#x131;" horiz-adv-x="320" 
d="M71 105v277q0 77 -54 80v25l240 14v-396q0 -77 56 -80v-25h-296v25q54 3 54 80z" />
    <glyph glyph-name="Lslash" unicode="&#x141;" horiz-adv-x="620" 
d="M72 318v222q0 47 -9.5 66.5t-44.5 26.5v25h314v-25q-35 -7 -44.5 -26.5t-9.5 -66.5v-95l119 84v-82l-119 -84v-195q0 -65 10 -79q17 -25 64 -25q80 0 162 73q47 46 87 133l19 -7l-83 -280q-5 9 -13 12q-13 5 -41 5h-465v25q36 7 45 26.5t9 66.5v118l-52 -37v82z" />
    <glyph glyph-name="lslash" unicode="&#x142;" horiz-adv-x="340" 
d="M75 343v192q0 53 -10.5 73t-43.5 25v26l242 16v-213l61 44v-78l-61 -44v-260q0 -53 10.5 -73t45.5 -25v-26h-298v26q33 6 43.5 25.5t10.5 72.5v142l-62 -44v77z" />
    <glyph glyph-name="OE" unicode="&#x152;" horiz-adv-x="1120" 
d="M1006 674l52 -233l-21 -6q-24 71 -81.5 112t-132.5 41q-45 0 -70 -16q-5 -3 -8.5 -7t-6 -7t-4 -8.5t-2.5 -8t-1.5 -9.5t-0.5 -9.5v-10.5v-10v-61h24q6 0 25 -0.5t26 0t22.5 2t22 4.5t16.5 9t14.5 14.5t8 22t3.5 30.5l19 2l45 -253l-21 -3q-31 71 -65 88.5t-114 17.5h-26
v-209q0 -62 19.5 -83.5t82.5 -21.5q85 0 151.5 53t106.5 136l20 -7l-85 -260q-10 11 -33 15q-12 2 -36 2l-562 -6q-162 0 -259 81q-53 45 -82 110.5t-29 136.5q0 151 107 249q97 90 269 90l523 -3q72 0 83 16zM362 577q-34 0 -61.5 -19.5t-43.5 -51.5q-25 -51 -25 -131
q0 -35 4 -71.5t16 -78t30 -73.5t49 -53t70 -21q34 0 64 23t44 56q23 50 23 124q0 45 -8 91.5t-25.5 95t-53 79t-83.5 30.5z" />
    <glyph glyph-name="oe" unicode="&#x153;" horiz-adv-x="1000" 
d="M956 183l-63 -192q-14 14 -33 14q-23 -2 -37 -5q-60 -13 -111 -13q-121 0 -195 57q-79 -57 -205 -57q-120 0 -200 67t-80 186q0 124 88.5 195t214.5 71q113 0 187 -47q78 47 184 47q102 0 177 -52t88 -148l-362 -70q7 -68 46 -117t104 -49q59 0 106 32.5t71 87.5z
M604 294l167 35q2 44 -17 73.5t-60 29.5q-49 0 -70.5 -42t-19.5 -96zM328 432q-29 0 -49.5 -15.5t-29.5 -41t-13 -50t-4 -52.5q0 -26 4.5 -58t15 -67.5t32 -59t49.5 -23.5q29 0 49 17.5t29 46.5t13 55t4 53q0 26 -4.5 56t-14.5 63t-31 54.5t-50 21.5z" />
    <glyph glyph-name="Scaron" unicode="&#x160;" 
d="M550 677l26 -217l-21 -3q-22 56 -75.5 96.5t-112.5 40.5q-43 0 -77.5 -20t-32.5 -59q0 -8 2 -15.5t7 -13.5t9.5 -10.5t13 -9t13.5 -7.5t16 -6.5t14.5 -5t15.5 -5t13 -3.5l117 -35q71 -21 118.5 -69t47.5 -109q0 -122 -86.5 -182t-244.5 -60q-57 0 -140 15q-47 10 -66 10
q-30 0 -54 -24l-22 279l22 3q14 -88 79.5 -145.5t153.5 -57.5q146 0 146 99q0 10 -3 19t-6.5 15t-12 12.5t-13.5 10t-17 8.5t-16.5 6.5t-18.5 6t-16 5.5l-101 33q-81 25 -116 54q-59 48 -59 121q0 51 18 91.5t45 64t62.5 38.5t66.5 20.5t60 5.5q61 0 122 -10l61 -11
q42 0 62 24zM326 712l-170 97l22 44l148 -44l149 44l20 -44z" />
    <glyph glyph-name="scaron" unicode="&#x161;" horiz-adv-x="560" 
d="M474 503l7 -146l-19 -2q-44 88 -147 88q-10 0 -22.5 -1.5t-26.5 -5.5t-23 -12.5t-9 -20.5q0 -6 2.5 -11.5t8.5 -10l10 -7.5t14 -6t13.5 -4.5t13.5 -3.5l11 -3l84 -23q67 -16 98 -39q52 -35 52 -102q0 -47 -24.5 -89t-64.5 -68q-76 -49 -184 -49q-50 0 -115 13
q-57 10 -61 10q-27 0 -45 -19l-14 198l21 4q17 -65 62 -101t111 -36q45 0 83.5 18t38.5 58q0 8 -3 14.5t-10 11.5t-13.5 9t-16.5 7t-16.5 4.5t-17 4t-13.5 3.5l-73 17q-66 16 -107.5 46t-41.5 88q0 42 23.5 77t62.5 56q66 36 167 36q47 0 87 -7q35 -7 62 -7q16 0 35 11z
M276 547l-170 97l22 44l148 -44l149 44l20 -44z" />
    <glyph glyph-name="Ydieresis" unicode="&#x178;" horiz-adv-x="700" 
d="M449 300v-169q1 -59 16 -83t54 -23v-25h-344v25q39 -1 54 23t15 83v169l-155 250q-1 2 -8.5 14.5t-10.5 16.5t-10 14t-12 14t-12.5 10.5t-15.5 9.5t-17 4v25h363v-25q-39 -5 -39 -38q0 -15 24 -58l77 -138l45 72q66 107 66 132q0 28 -38 30v25h197v-25q-39 -10 -73 -56
l-79 -122zM176 808q0 32 22 54t54 22t54 -22t22 -54t-22 -54t-54 -22t-54 22t-22 54zM364 808q0 32 22 54t54 22t54 -22t22 -54t-22 -54t-54 -22t-54 22t-22 54z" />
    <glyph glyph-name="Zcaron" unicode="&#x17d;" horiz-adv-x="640" 
d="M644 238l-87 -254q-7 13 -24 15q-10 1 -30 1h-501l351 589h-33q-38 0 -84 -15t-79 -37q-52 -35 -92 -106l-19 5l56 239q12 -14 30 -16q12 -1 35 -1h476l-357 -587l43 -2q96 0 175 46t121 130zM316 712l-170 97l22 44l148 -44l149 44l20 -44z" />
    <glyph glyph-name="zcaron" unicode="&#x17e;" horiz-adv-x="540" 
d="M532 493l-264 -427q63 -3 71 -3q59 0 108 28t70 86l21 -6l-54 -191q-9 13 -32 18q-13 2 -37 2h-403l265 426q-52 4 -56 4q-39 0 -81.5 -27.5t-56.5 -72.5l-20 5l39 178q8 -14 27 -17q11 -3 33 -3h370zM266 547l-170 97l22 44l148 -44l149 44l20 -44z" />
    <glyph glyph-name="florin" unicode="&#x192;" horiz-adv-x="680" 
d="M652 690l-31 -104l-12 3q4 38 -20.5 67.5t-62.5 29.5q-20 0 -37 -8.5t-28.5 -25.5t-19 -32.5t-13.5 -41t-8.5 -39t-6.5 -36.5h75q4 0 14 -0.5t15.5 0t14 1.5t14.5 4.5t11 8.5l-19 -92q0 5 -1.5 9t-5.5 6l-7 3.5t-9 2t-9 0.5h-9h-8h-84l-87 -414q-16 -81 -67 -136
q-59 -65 -147 -65q-46 0 -98.5 21t-83.5 54l59 108l12 -6q-5 -25 -5 -30q0 -32 22.5 -59.5t54.5 -27.5q77 0 103 132l81 423h-107l10 56h107l5 26q21 107 60 154q59 68 156 68q95 0 172 -60z" />
    <glyph glyph-name="circumflex" unicode="&#x2c6;" horiz-adv-x="480" 
d="M236 708l169 -97l-20 -44l-149 44l-148 -44l-22 44z" />
    <glyph glyph-name="caron" unicode="&#x2c7;" horiz-adv-x="480" 
d="M236 547l-170 97l22 44l148 -44l149 44l20 -44z" />
    <glyph glyph-name="uni02C9" unicode="&#x2c9;" horiz-adv-x="520" 
d="M66 681h394v-93h-394v93z" />
    <glyph glyph-name="breve" unicode="&#x2d8;" horiz-adv-x="400" 
d="M66 696h47q20 -44 86 -44q63 0 87 44h49q-1 -59 -39 -92t-98 -33q-129 0 -132 125z" />
    <glyph glyph-name="dotaccent" unicode="&#x2d9;" horiz-adv-x="280" 
d="M66 643q0 31 22 53.5t54 22.5t54 -22.5t22 -53.5t-22 -53.5t-54 -22.5t-54 22.5t-22 53.5z" />
    <glyph glyph-name="ring" unicode="&#x2da;" horiz-adv-x="340" 
d="M171 546q-43 0 -74 31t-31 74q0 44 30.5 75t74.5 31t74.5 -31t30.5 -75q0 -43 -31 -74t-74 -31zM170 609q18 0 30.5 12t12.5 30t-12.5 30.5t-30.5 12.5q-17 0 -29 -13t-12 -30t12 -29.5t29 -12.5z" />
    <glyph glyph-name="ogonek" unicode="&#x2db;" horiz-adv-x="360" 
d="M157 0h52q-1 -1 -14 -6.5t-16 -7t-13 -7t-13.5 -10t-9.5 -11t-8 -14t-2 -16.5q0 -23 21 -33t41 -10q42 0 101 39l-28 -86q-16 7 -22.5 4.5t-33.5 -9t-56 -6.5q-41 -1 -71 19.5t-30 55.5q0 21 8.5 37.5t25.5 28t31.5 18t36.5 14.5z" />
    <glyph glyph-name="tilde" unicode="&#x2dc;" horiz-adv-x="460" 
d="M358 683l35 -20q-18 -38 -50 -65.5t-69 -27.5q-30 0 -78 26q-38 19 -50 19q-24 0 -48 -33l-32 19q42 97 119 97q23 0 71 -26q40 -23 53 -23q22 0 49 34z" />
    <glyph glyph-name="hungarumlaut" unicode="&#x2dd;" horiz-adv-x="360" 
d="M18 546l35 110q24 68 62 68q16 0 35.5 -13t27.5 -34q6 -18 -2.5 -35.5t-16.5 -25t-27 -23.5l-84 -67zM180 546l35 110q24 68 62 68q16 0 35.5 -13t27.5 -34q6 -18 -2.5 -35.5t-16.5 -25t-27 -23.5l-84 -67z" />
    <glyph glyph-name="uni03A9" unicode="&#x3a9;" horiz-adv-x="888" 
d="M847 185l-36 -185h-320l-11 29q25 36 40 61.5t40 74t38 101t13 105.5q0 128 -45 193t-125 65q-165 0 -165 -260q0 -149 127 -339l-8 -30h-325l-29 185h41q20 -44 38 -57.5t58 -13.5h102q-38 21 -67 42t-62 53.5t-51 75t-18 91.5q0 136 100 217t262 81q163 0 261 -78.5
t98 -212.5q0 -139 -206 -269h118q37 0 53.5 13.5t36.5 57.5h42z" />
    <glyph glyph-name="uni03BC" unicode="&#x3bc;" 
d="M639 25v-25h-229q-10 29 -12 90q-70 -81 -164 -98q0 -97 40 -209h-259q50 91 50 267v332q-1 77 -55 80v25l242 14v-309v-7q0 -19 1 -30t4.5 -27.5t14.5 -24.5t28 -8q27 0 47.5 18t31.5 46q19 47 19 133v58v15v15.5t-0.5 14.5t-1.5 15t-3 13t-5 13t-7.5 9.5t-10.5 8.5
t-13.5 5.5t-17.5 2.5v25l246 14v-396q0 -77 54 -80z" />
    <glyph glyph-name="pi" unicode="&#x3c0;" horiz-adv-x="703" 
d="M641 497l35 -11q-3 -35 -19 -81.5t-30 -59.5q-27 -7 -76 -7q-7 -66 -5 -179q1 -43 15 -62.5t34 -19.5q17 0 47 15l15 -34q-23 -31 -65.5 -50.5t-85.5 -19.5q-130 0 -130 135q0 89 11 217q-77 2 -132 2v-8q0 -101 -16.5 -179.5t-31 -108t-26.5 -41.5q-50 -16 -80 -17
l-11 25q52 67 79 161.5t27 169.5q-49 1 -79.5 -7t-68.5 -30l-22 36q44 58 64 75q54 46 149 45q276 -3 329 -3q50 0 73 37z" />
    <glyph glyph-name="endash" unicode="&#x2013;" horiz-adv-x="500" 
d="M-71 168l71 166q7 -16 18.5 -19t40.5 -3h429q54 0 69 22l14 -7l-71 -167q-5 13 -17.5 19.5t-21.5 7t-27 0.5h-403q-23 0 -33.5 -0.5t-27.5 -7t-26 -19.5z" />
    <glyph glyph-name="emdash" unicode="&#x2014;" horiz-adv-x="1000" 
d="M29 168l71 166q5 -11 15.5 -16t18 -5.5t25.5 -0.5h730q53 0 68 22l14 -7l-71 -167q-5 13 -17 19.5t-21 7t-28 0.5h-703q-22 0 -33 -0.5t-28 -7t-26 -19.5z" />
    <glyph glyph-name="quoteleft" unicode="&#x2018;" horiz-adv-x="300" 
d="M37 437l115 221h118l-12 -30l-55 -126q-14 -28 -14 -42q0 -11 9 -23h-161z" />
    <glyph glyph-name="quoteright" unicode="&#x2019;" horiz-adv-x="300" 
d="M263 658l-115 -221h-118l12 30l55 126q14 31 14 43q0 10 -9 22h161z" />
    <glyph glyph-name="quotesinglbase" unicode="&#x201a;" horiz-adv-x="240" 
d="M221 138l-115 -221h-119l67 156q15 33 15 42q0 10 -10 23h162z" />
    <glyph glyph-name="quotedblleft" unicode="&#x201c;" horiz-adv-x="500" 
d="M227 437l115 221h119l-13 -30l-55 -126q-14 -35 -14 -42q0 -11 9 -23h-161zM43 438l114 220h119l-12 -30l-55 -125q-14 -39 -14 -43q0 -10 9 -22h-161z" />
    <glyph glyph-name="quotedblright" unicode="&#x201d;" horiz-adv-x="500" 
d="M273 658l-115 -221h-119l67 156q15 33 15 42q0 10 -10 23h162zM457 658l-115 -221h-119l67 156q15 33 15 42q0 10 -10 23h162z" />
    <glyph glyph-name="quotedblbase" unicode="&#x201e;" horiz-adv-x="500" 
d="M273 138l-115 -221h-119l67 156q15 33 15 42q0 10 -10 23h162zM457 138l-115 -221h-119l67 156q15 33 15 42q0 10 -10 23h162z" />
    <glyph glyph-name="dagger" unicode="&#x2020;" 
d="M385 587l-27 -173l84 19q45 10 56 10q23 0 37.5 -16t14.5 -39q0 -25 -14 -41t-38 -16q-10 0 -32 4l-107 22q16 -86 44 -130q-48 -144 -54 -381h-32q-6 237 -54 381q30 52 42 130l-102 -22q-26 -4 -34 -4q-25 0 -39.5 15.5t-14.5 40.5q0 26 15 41t40 15q10 0 28 -4
l107 -25l-26 170q-4 26 -4 38q0 24 16 38.5t40 14.5q25 0 41 -14t16 -39q0 -18 -3 -35z" />
    <glyph glyph-name="daggerdbl" unicode="&#x2021;" 
d="M466 336l-108 21q6 -41 39 -96q-34 -62 -39 -98l104 21q30 5 36 5q24 0 38 -16t14 -40t-14.5 -40t-37.5 -16q-11 0 -33 5l-107 24l26 -169q4 -26 4 -39q0 -24 -16 -38t-41 -14q-24 0 -40 14.5t-16 38.5q0 5 2 16.5t2 15.5l26 176l-103 -24q-17 -5 -32 -5q-25 0 -40 15
t-15 40q0 56 57 56q7 0 27 -4l106 -22q-3 38 -37 98q33 54 37 96l-102 -22q-17 -4 -34 -4q-25 0 -39.5 15.5t-14.5 40.5t15 40.5t40 15.5q13 0 28 -5l107 -25l-26 171q-4 24 -4 37q0 24 16 39t40 15q25 0 41 -14.5t16 -39.5q0 -12 -4 -34l-26 -174l84 21q41 9 56 9
q23 0 37.5 -16t14.5 -40q0 -25 -14 -40.5t-38 -15.5q-4 0 -32 5z" />
    <glyph glyph-name="bullet" unicode="&#x2022;" horiz-adv-x="380" 
d="M353 330q0 -73 -45.5 -119t-119.5 -46q-72 0 -117.5 46.5t-45.5 118.5q0 71 46.5 116.5t116.5 46.5q72 0 118.5 -45.5t46.5 -117.5z" />
    <glyph glyph-name="ellipsis" unicode="&#x2026;" horiz-adv-x="1000" 
d="M165 -13q-46 0 -78.5 29t-32.5 74q0 47 33 73.5t81 26.5q47 0 79.5 -27t32.5 -73t-34 -74.5t-81 -28.5zM498 -13q-47 0 -79 28.5t-32 74.5q0 47 32.5 73.5t81.5 26.5q47 0 79.5 -27t32.5 -73t-34 -74.5t-81 -28.5zM830 -13q-46 0 -78 28.5t-32 74.5q0 47 32.5 73.5
t80.5 26.5q47 0 80 -27t33 -73t-34 -74.5t-82 -28.5z" />
    <glyph glyph-name="perthousand" unicode="&#x2030;" horiz-adv-x="1420" 
d="M219 674q86 0 136.5 -59.5t50.5 -146.5q0 -89 -51.5 -148.5t-139.5 -59.5q-85 0 -136.5 57t-51.5 143q0 93 50.5 153.5t141.5 60.5zM216 623q-33 0 -51 -46q-17 -40 -17 -112q0 -66 15 -105q7 -19 21.5 -34t31.5 -15q22 0 37 17t21.5 44.5t8.5 49t2 43.5q0 21 -2.5 43
t-8.5 50.5t-21 46.5t-37 18zM766 402q86 0 137 -59.5t51 -146.5q0 -89 -52 -149t-139 -60q-86 0 -137 57.5t-51 143.5q0 93 50.5 153.5t140.5 60.5zM764 351q-32 0 -52 -46q-16 -40 -16 -113q0 -66 14 -104q7 -19 21.5 -34.5t31.5 -15.5q22 0 37 17.5t21.5 45t9 49.5t2.5 43
t-2.5 43.5t-9 50.5t-21.5 46t-36 18zM1206 402q86 0 136.5 -59.5t50.5 -146.5q0 -89 -51.5 -149t-139.5 -60q-85 0 -136.5 57.5t-51.5 143.5q0 93 50.5 153.5t141.5 60.5zM1203 351q-33 0 -51 -46q-17 -40 -17 -113q0 -66 15 -104q7 -19 21.5 -34.5t31.5 -15.5q22 0 37 17
t21.5 45t8.5 49.5t2 43.5q0 21 -2.5 43t-8.5 50.5t-21 46.5t-37 18zM693 658v-16q-9 -2 -16 -5.5t-13 -10t-10.5 -11t-9 -14.5t-7 -14.5t-7 -16.5t-5.5 -15l-188 -456q-24 -54 -24 -62q0 -16 19 -21v-16h-151v16q6 1 11.5 3t10.5 6t8.5 7t8 10t6.5 10t6 11.5t5 11t4.5 12
t4.5 10.5l204 490q1 2 4.5 10t6 15.5t2.5 10.5q0 19 -17 19v16h147z" />
    <glyph glyph-name="guilsinglleft" unicode="&#x2039;" horiz-adv-x="300" 
d="M70 250l91 161l67 -31l-44 -130l44 -133l-67 -33z" />
    <glyph glyph-name="guilsinglright" unicode="&#x203a;" horiz-adv-x="300" 
d="M230 250l-91 -166l-67 33l44 133l-44 130l67 31z" />
    <glyph glyph-name="fraction" unicode="&#x2044;" horiz-adv-x="200" 
d="M310 658v-16q-9 -2 -16 -5.5t-13 -10t-10.5 -11t-9 -14.5t-7 -14.5t-7 -16.5t-5.5 -15l-188 -456q-23 -52 -23 -62q0 -17 18 -21v-16h-151v16q6 1 11.5 3t10.5 6t8.5 7t8 10t6.5 10t6 11.5t5 11t4.5 12t4.5 10.5l204 490q14 28 14 36q0 19 -18 19v16h147z" />
    <glyph glyph-name="Euro" unicode="&#x20ac;" horiz-adv-x="680" 
d="M483 251h-13q-11 12 -31 12h-155q13 -54 39 -95q29 -45 74 -72t95 -27q56 0 102.5 32.5t67.5 93.5l20 -8l-65 -209q-7 11 -16 14q-5 2 -23 2q-5 0 -65 -6q-28 -4 -63 -4q-135 -1 -237 71.5t-127 207.5h-24q-20 0 -31 -12h-13v90h13q12 -12 30 -12h18v15q0 31 2 46h-19
q-20 0 -31 -12h-13v90h13q12 -12 30 -12h33q31 104 114 161t193 57q48 0 127 -15q22 -4 32 -4q30 0 44 27l41 -244l-21 -5q-28 67 -78 111.5t-110 44.5q-56 0 -94.5 -36.5t-56.5 -96.5h154q13 0 17 1.5t14 10.5h13v-90h-13q-11 12 -31 12h-166q-1 -9 -1 -26q0 -23 1 -35h166
q13 0 17 1.5t14 10.5h13v-90z" />
    <glyph glyph-name="afii61289" unicode="&#x2113;" horiz-adv-x="541" 
d="M489 160l28 -29q-89 -146 -231 -146q-92 0 -138 43q-50 50 -50 164v32l-68 -37l-16 39l84 52v123q0 104 13 160t49 98q62 74 151 74q67 0 100.5 -43.5t33.5 -104.5q0 -81 -46 -145t-145 -136v-70q0 -83 24 -122t77 -39q70 0 134 87zM254 463v-96q47 54 69.5 99.5
t22.5 119.5q0 39 -11 70.5t-36 31.5q-30 0 -37.5 -46.5t-7.5 -178.5z" />
    <glyph glyph-name="trademark" unicode="&#x2122;" horiz-adv-x="940" 
d="M296 618l-1 -261q0 -29 8 -40t38 -10v-20h-218v20q30 -1 37.5 10t7.5 40v262q-28 -2 -48 -10.5t-31.5 -23.5t-16 -24t-9.5 -24l-18 3l31 141q5 -9 12 -12q6 -2 29 -2h224q27 0 33.5 2t13.5 11l30 -140l-18 -3q-17 39 -39.5 58t-64.5 23zM622 357l-107 216v-216
q0 -27 6 -38t29 -12v-20h-122v20q20 4 25.5 13.5t5.5 36.5v239q0 28 -5.5 37.5t-25.5 13.5v20h204v-20q-13 -4 -13 -12q0 -6 6 -22l35 -77l42 82q7 7 7 18q0 7 -11 11v20h194v-20q-21 -4 -26.5 -14t-5.5 -37v-239q0 -27 5.5 -37t26.5 -13v-20h-194v20q22 2 28 12.5t6 37.5
v217z" />
    <glyph glyph-name="Omega" unicode="&#x2126;" horiz-adv-x="888" 
d="M847 185l-36 -185h-320l-11 29q25 36 40 61.5t40 74t38 101t13 105.5q0 128 -45 193t-125 65q-165 0 -165 -260q0 -149 127 -339l-8 -30h-325l-29 185h41q20 -44 38 -57.5t58 -13.5h102q-38 21 -67 42t-62 53.5t-51 75t-18 91.5q0 136 100 217t262 81q163 0 261 -78.5
t98 -212.5q0 -139 -206 -269h118q37 0 53.5 13.5t36.5 57.5h42z" />
    <glyph glyph-name="estimated" unicode="&#x212e;" horiz-adv-x="831" 
d="M798 319h-620q-5 0 -5 -4v-188q0 -11 8 -21q99 -102 234 -102q73 0 137 30.5t110 83.5h55q-52 -61 -132 -97t-171 -36q-158 0 -270 100.5t-112 242.5q0 143 112 243.5t270 100.5q159 0 271.5 -100.5t112.5 -243.5v-9zM657 343v189q0 13 -9 22q-100 98 -233 98
q-134 0 -233 -101q-9 -9 -9 -23v-185q0 -6 5 -6h475q4 0 4 6z" />
    <glyph glyph-name="partialdiff" unicode="&#x2202;" horiz-adv-x="651" 
d="M303 426h1q43 0 81 -16.5t56 -43.5q10 47 12 106q2 93 -28 145q-34 60 -94 60q-75 0 -178 -86q-21 0 -46.5 42.5t-12.5 67.5q30 13 44.5 19t51 13t79.5 7q170 0 265 -143q65 -96 65 -218q0 -140 -62 -244q-89 -150 -263 -150q-104 0 -166 58.5t-62 152.5q0 100 70 163
q73 67 187 67zM351 367h-1q-61 0 -96 -54q-42 -68 -42 -172q0 -50 18 -80.5t53 -30.5q53 0 95 90q35 78 53 192q-33 55 -80 55z" />
    <glyph glyph-name="Delta" unicode="&#x2206;" horiz-adv-x="768" 
d="M727 0h-687v43l298 614l82 17l307 -631v-43zM519 73l-196 427l-194 -427h390z" />
    <glyph glyph-name="product" unicode="&#x220f;" horiz-adv-x="843" 
d="M810 687v-40q-69 -5 -84.5 -21t-15.5 -78v-484q0 -63 16 -79.5t85 -21.5v-40h-359v40q61 5 73 19.5t12 82.5v534q0 24 -7 30t-32 6h-156q-25 0 -31 -6t-6 -30v-534q0 -68 11 -82.5t68 -19.5v-40h-352v40q68 5 84 21.5t16 80.5v483q0 62 -16.5 78t-87.5 21v40h782z" />
    <glyph glyph-name="summation" unicode="&#x2211;" horiz-adv-x="667" 
d="M640 158l-57 -243h-557v44l237 303l-228 381v44h545q3 -54 14 -197l-41 -11q-25 82 -48 117q-17 26 -37 35t-77 9h-152l166 -285l-241 -311h267q35 0 51 2t32.5 6.5t28 21t23 35.5t32.5 61z" />
    <glyph glyph-name="minus" unicode="&#x2212;" horiz-adv-x="600" 
d="M64 272v112h13q13 -13 31 -13h385q18 0 31 13h13v-112h-13q-11 17 -31 17h-386q-19 0 -30 -17h-13z" />
    <glyph glyph-name="uni2215" unicode="&#x2215;" horiz-adv-x="200" 
d="M310 658v-16q-9 -2 -16 -5.5t-13 -10t-10.5 -11t-9 -14.5t-7 -14.5t-7 -16.5t-5.5 -15l-188 -456q-23 -52 -23 -62q0 -17 18 -21v-16h-151v16q6 1 11.5 3t10.5 6t8.5 7t8 10t6.5 10t6 11.5t5 11t4.5 12t4.5 10.5l204 490q14 28 14 36q0 19 -18 19v16h147z" />
    <glyph glyph-name="uni2219" unicode="&#x2219;" horiz-adv-x="340" 
d="M168 226q-46 0 -78.5 29t-32.5 74q0 47 33 73.5t81 26.5q47 0 79.5 -27t32.5 -73t-34 -74.5t-81 -28.5z" />
    <glyph glyph-name="radical" unicode="&#x221a;" horiz-adv-x="626" 
d="M622 848l-192 -992l-41 -17l-240 517l-95 -43l-16 48l221 101l158 -361h2l142 759z" />
    <glyph glyph-name="infinity" unicode="&#x221e;" horiz-adv-x="799" 
d="M753 276v-1q0 -84 -51.5 -134t-120.5 -50q-106 0 -184 110q-43 -54 -85.5 -82t-98.5 -28q-69 0 -119 49.5t-50 128.5q0 80 51 131t128 51q103 0 183 -107q47 54 73 73q49 35 107 34q70 -1 118.5 -49t48.5 -126zM222 178h2q56 0 126 87q-19 28 -28.5 40t-26.5 29.5t-35 24
t-40 6.5q-36 0 -61 -26t-25 -70q0 -37 26 -64t62 -27zM577 365h-1q-25 0 -52 -18t-39 -32t-35 -43q41 -55 69.5 -74.5t62.5 -19.5q36 0 58 28.5t22 61.5q0 43 -23.5 70t-61.5 27z" />
    <glyph glyph-name="integral" unicode="&#x222b;" horiz-adv-x="460" 
d="M179 -26l-23 384q-7 111 5 196t34 132t53.5 76t58 37.5t53.5 8.5q34 0 61.5 -17.5t27.5 -45.5q0 -33 -19.5 -51.5t-46.5 -18.5q-18 0 -30.5 19t-20.5 38t-17 19q-30 0 -23 -142l20 -364q7 -123 -7.5 -215t-46 -143.5t-70 -76t-84.5 -24.5q-36 0 -62 19t-27 47
q-1 29 26.5 51t55.5 22q21 0 35 -41.5t24 -41.5q31 0 23 132z" />
    <glyph glyph-name="approxequal" unicode="&#x2248;" horiz-adv-x="611" 
d="M514 457l62 -64q-72 -103 -161 -103q-33 0 -58 9t-65 30q-58 31 -90 31t-58 -17.5t-55 -51.5l-61 64q28 42 76.5 72t98.5 30q58 0 113 -33q35 -22 52.5 -29.5t40.5 -7.5q52 0 105 70zM514 258l62 -64q-72 -103 -163 -103q-51 0 -121 39q-57 31 -90 31t-58 -17.5
t-55 -52.5l-61 64q28 43 77 73t99 30q53 0 111 -32q4 -2 21 -12.5t23.5 -14t20.5 -7.5t28 -4q29 0 52.5 16.5t53.5 53.5z" />
    <glyph glyph-name="notequal" unicode="&#x2260;" horiz-adv-x="611" 
d="M457 502l-36 -78h139v-94h-181l-55 -121h236v-95h-279l-53 -116l-78 36l38 80h-138v95h180l56 121h-236v94h277l53 114z" />
    <glyph glyph-name="lessequal" unicode="&#x2264;" horiz-adv-x="611" 
d="M559 127l-507 216v101l506 216v-104l-402 -161v-2l403 -163v-103zM560 -4h-509v97h509v-97z" />
    <glyph glyph-name="greaterequal" unicode="&#x2265;" horiz-adv-x="611" 
d="M52 660l507 -217v-101l-506 -215v103l402 163v2l-403 161v104zM554 -4h-503v97h503v-97z" />
    <glyph glyph-name="lozenge" unicode="&#x25ca;" horiz-adv-x="667" 
d="M622 322l-231 -398h-117l-231 398l234 401h114zM510 322l-175 311h-4l-175 -310l175 -315h4z" />
    </font>
</defs>
</svg>
